<mxfile host="app.diagrams.net" modified="2023-11-21T21:20:47.433Z" agent="Mozilla/5.0 (Windows NT 10.0; Win64; x64) AppleWebKit/537.36 (KHTML, like Gecko) Chrome/118.0.0.0 Safari/537.36 OPR/104.0.0.0" etag="9jcTaLlRd1-JMqCw8gae" version="22.1.3" type="device" pages="4">
  <diagram id="C5RBs43oDa-KdzZeNtuy" name="Page-1">
    <mxGraphModel dx="1393" dy="766" grid="1" gridSize="10" guides="1" tooltips="1" connect="1" arrows="1" fold="1" page="1" pageScale="1" pageWidth="827" pageHeight="1169" math="0" shadow="0">
      <root>
        <mxCell id="WIyWlLk6GJQsqaUBKTNV-0" />
        <mxCell id="WIyWlLk6GJQsqaUBKTNV-1" parent="WIyWlLk6GJQsqaUBKTNV-0" />
        <mxCell id="5N3DmIChMx7B-OkHC1g6-2" style="edgeStyle=orthogonalEdgeStyle;rounded=0;orthogonalLoop=1;jettySize=auto;html=1;exitX=1;exitY=0.5;exitDx=0;exitDy=0;entryX=0;entryY=0.5;entryDx=0;entryDy=0;" parent="WIyWlLk6GJQsqaUBKTNV-1" source="5N3DmIChMx7B-OkHC1g6-0" target="5N3DmIChMx7B-OkHC1g6-1" edge="1">
          <mxGeometry relative="1" as="geometry" />
        </mxCell>
        <mxCell id="5N3DmIChMx7B-OkHC1g6-0" value="1" style="ellipse;whiteSpace=wrap;html=1;aspect=fixed;" parent="WIyWlLk6GJQsqaUBKTNV-1" vertex="1">
          <mxGeometry x="30" y="190" width="60" height="60" as="geometry" />
        </mxCell>
        <mxCell id="5N3DmIChMx7B-OkHC1g6-6" style="edgeStyle=orthogonalEdgeStyle;rounded=0;orthogonalLoop=1;jettySize=auto;html=1;exitX=1;exitY=0.5;exitDx=0;exitDy=0;" parent="WIyWlLk6GJQsqaUBKTNV-1" source="5N3DmIChMx7B-OkHC1g6-1" target="5N3DmIChMx7B-OkHC1g6-3" edge="1">
          <mxGeometry relative="1" as="geometry" />
        </mxCell>
        <mxCell id="5N3DmIChMx7B-OkHC1g6-1" value="2" style="ellipse;whiteSpace=wrap;html=1;aspect=fixed;" parent="WIyWlLk6GJQsqaUBKTNV-1" vertex="1">
          <mxGeometry x="130" y="190" width="60" height="60" as="geometry" />
        </mxCell>
        <mxCell id="5N3DmIChMx7B-OkHC1g6-7" style="edgeStyle=orthogonalEdgeStyle;rounded=0;orthogonalLoop=1;jettySize=auto;html=1;exitX=1;exitY=0.5;exitDx=0;exitDy=0;" parent="WIyWlLk6GJQsqaUBKTNV-1" source="5N3DmIChMx7B-OkHC1g6-3" target="5N3DmIChMx7B-OkHC1g6-4" edge="1">
          <mxGeometry relative="1" as="geometry" />
        </mxCell>
        <mxCell id="5N3DmIChMx7B-OkHC1g6-3" value="3" style="ellipse;whiteSpace=wrap;html=1;aspect=fixed;" parent="WIyWlLk6GJQsqaUBKTNV-1" vertex="1">
          <mxGeometry x="230" y="190" width="60" height="60" as="geometry" />
        </mxCell>
        <mxCell id="5N3DmIChMx7B-OkHC1g6-9" style="edgeStyle=orthogonalEdgeStyle;rounded=0;orthogonalLoop=1;jettySize=auto;html=1;exitX=1;exitY=0.5;exitDx=0;exitDy=0;" parent="WIyWlLk6GJQsqaUBKTNV-1" source="5N3DmIChMx7B-OkHC1g6-4" target="5N3DmIChMx7B-OkHC1g6-8" edge="1">
          <mxGeometry relative="1" as="geometry" />
        </mxCell>
        <mxCell id="MJtzoA5EbWzo3pOl1giI-0" value="" style="edgeStyle=orthogonalEdgeStyle;rounded=0;orthogonalLoop=1;jettySize=auto;html=1;" parent="WIyWlLk6GJQsqaUBKTNV-1" source="5N3DmIChMx7B-OkHC1g6-4" target="5N3DmIChMx7B-OkHC1g6-8" edge="1">
          <mxGeometry relative="1" as="geometry" />
        </mxCell>
        <mxCell id="5N3DmIChMx7B-OkHC1g6-4" value="4" style="ellipse;whiteSpace=wrap;html=1;aspect=fixed;" parent="WIyWlLk6GJQsqaUBKTNV-1" vertex="1">
          <mxGeometry x="330" y="190" width="60" height="60" as="geometry" />
        </mxCell>
        <mxCell id="5N3DmIChMx7B-OkHC1g6-23" style="edgeStyle=orthogonalEdgeStyle;rounded=0;orthogonalLoop=1;jettySize=auto;html=1;exitX=1;exitY=0.5;exitDx=0;exitDy=0;" parent="WIyWlLk6GJQsqaUBKTNV-1" source="5N3DmIChMx7B-OkHC1g6-8" target="5N3DmIChMx7B-OkHC1g6-10" edge="1">
          <mxGeometry relative="1" as="geometry" />
        </mxCell>
        <mxCell id="5N3DmIChMx7B-OkHC1g6-8" value="5" style="ellipse;whiteSpace=wrap;html=1;aspect=fixed;" parent="WIyWlLk6GJQsqaUBKTNV-1" vertex="1">
          <mxGeometry x="430" y="190" width="60" height="60" as="geometry" />
        </mxCell>
        <mxCell id="5N3DmIChMx7B-OkHC1g6-26" style="edgeStyle=orthogonalEdgeStyle;rounded=0;orthogonalLoop=1;jettySize=auto;html=1;exitX=1;exitY=0.5;exitDx=0;exitDy=0;" parent="WIyWlLk6GJQsqaUBKTNV-1" source="5N3DmIChMx7B-OkHC1g6-10" target="5N3DmIChMx7B-OkHC1g6-11" edge="1">
          <mxGeometry relative="1" as="geometry" />
        </mxCell>
        <mxCell id="5N3DmIChMx7B-OkHC1g6-10" value="6" style="ellipse;whiteSpace=wrap;html=1;aspect=fixed;" parent="WIyWlLk6GJQsqaUBKTNV-1" vertex="1">
          <mxGeometry x="530" y="190" width="60" height="60" as="geometry" />
        </mxCell>
        <mxCell id="5N3DmIChMx7B-OkHC1g6-27" style="edgeStyle=orthogonalEdgeStyle;rounded=0;orthogonalLoop=1;jettySize=auto;html=1;exitX=1;exitY=0.5;exitDx=0;exitDy=0;entryX=0;entryY=0.5;entryDx=0;entryDy=0;" parent="WIyWlLk6GJQsqaUBKTNV-1" source="5N3DmIChMx7B-OkHC1g6-11" target="5N3DmIChMx7B-OkHC1g6-12" edge="1">
          <mxGeometry relative="1" as="geometry" />
        </mxCell>
        <mxCell id="SBXpkZb1S0zjY_RlObLY-1" style="edgeStyle=orthogonalEdgeStyle;rounded=0;orthogonalLoop=1;jettySize=auto;html=1;exitX=0.5;exitY=1;exitDx=0;exitDy=0;entryX=0;entryY=0.5;entryDx=0;entryDy=0;" parent="WIyWlLk6GJQsqaUBKTNV-1" source="5N3DmIChMx7B-OkHC1g6-11" target="5N3DmIChMx7B-OkHC1g6-13" edge="1">
          <mxGeometry relative="1" as="geometry" />
        </mxCell>
        <mxCell id="5N3DmIChMx7B-OkHC1g6-11" value="7" style="ellipse;whiteSpace=wrap;html=1;aspect=fixed;" parent="WIyWlLk6GJQsqaUBKTNV-1" vertex="1">
          <mxGeometry x="630" y="190" width="60" height="60" as="geometry" />
        </mxCell>
        <mxCell id="5N3DmIChMx7B-OkHC1g6-28" style="edgeStyle=orthogonalEdgeStyle;rounded=0;orthogonalLoop=1;jettySize=auto;html=1;exitX=0.5;exitY=0;exitDx=0;exitDy=0;entryX=0.5;entryY=0;entryDx=0;entryDy=0;" parent="WIyWlLk6GJQsqaUBKTNV-1" source="5N3DmIChMx7B-OkHC1g6-12" target="5N3DmIChMx7B-OkHC1g6-11" edge="1">
          <mxGeometry relative="1" as="geometry" />
        </mxCell>
        <mxCell id="5N3DmIChMx7B-OkHC1g6-29" style="edgeStyle=orthogonalEdgeStyle;rounded=0;orthogonalLoop=1;jettySize=auto;html=1;exitX=0.5;exitY=1;exitDx=0;exitDy=0;entryX=0.5;entryY=0;entryDx=0;entryDy=0;" parent="WIyWlLk6GJQsqaUBKTNV-1" source="5N3DmIChMx7B-OkHC1g6-12" target="5N3DmIChMx7B-OkHC1g6-13" edge="1">
          <mxGeometry relative="1" as="geometry" />
        </mxCell>
        <mxCell id="5N3DmIChMx7B-OkHC1g6-12" value="8" style="ellipse;whiteSpace=wrap;html=1;aspect=fixed;" parent="WIyWlLk6GJQsqaUBKTNV-1" vertex="1">
          <mxGeometry x="730" y="190" width="60" height="60" as="geometry" />
        </mxCell>
        <mxCell id="5N3DmIChMx7B-OkHC1g6-30" style="edgeStyle=orthogonalEdgeStyle;rounded=0;orthogonalLoop=1;jettySize=auto;html=1;exitX=0.5;exitY=1;exitDx=0;exitDy=0;entryX=0.5;entryY=0;entryDx=0;entryDy=0;" parent="WIyWlLk6GJQsqaUBKTNV-1" source="5N3DmIChMx7B-OkHC1g6-13" target="5N3DmIChMx7B-OkHC1g6-14" edge="1">
          <mxGeometry relative="1" as="geometry" />
        </mxCell>
        <mxCell id="5N3DmIChMx7B-OkHC1g6-32" style="edgeStyle=orthogonalEdgeStyle;rounded=0;orthogonalLoop=1;jettySize=auto;html=1;exitX=1;exitY=0.5;exitDx=0;exitDy=0;entryX=0.5;entryY=1;entryDx=0;entryDy=0;" parent="WIyWlLk6GJQsqaUBKTNV-1" source="5N3DmIChMx7B-OkHC1g6-13" target="5N3DmIChMx7B-OkHC1g6-16" edge="1">
          <mxGeometry relative="1" as="geometry">
            <Array as="points">
              <mxPoint x="820" y="330" />
              <mxPoint x="820" y="500" />
              <mxPoint x="560" y="500" />
            </Array>
          </mxGeometry>
        </mxCell>
        <mxCell id="5N3DmIChMx7B-OkHC1g6-13" value="9" style="ellipse;whiteSpace=wrap;html=1;aspect=fixed;" parent="WIyWlLk6GJQsqaUBKTNV-1" vertex="1">
          <mxGeometry x="730" y="300" width="60" height="60" as="geometry" />
        </mxCell>
        <mxCell id="5N3DmIChMx7B-OkHC1g6-31" style="edgeStyle=orthogonalEdgeStyle;rounded=0;orthogonalLoop=1;jettySize=auto;html=1;exitX=0;exitY=0.5;exitDx=0;exitDy=0;entryX=1;entryY=0.5;entryDx=0;entryDy=0;" parent="WIyWlLk6GJQsqaUBKTNV-1" source="5N3DmIChMx7B-OkHC1g6-14" target="5N3DmIChMx7B-OkHC1g6-15" edge="1">
          <mxGeometry relative="1" as="geometry" />
        </mxCell>
        <mxCell id="5N3DmIChMx7B-OkHC1g6-14" value="10" style="ellipse;whiteSpace=wrap;html=1;aspect=fixed;" parent="WIyWlLk6GJQsqaUBKTNV-1" vertex="1">
          <mxGeometry x="730" y="400" width="60" height="60" as="geometry" />
        </mxCell>
        <mxCell id="5N3DmIChMx7B-OkHC1g6-25" style="edgeStyle=orthogonalEdgeStyle;rounded=0;orthogonalLoop=1;jettySize=auto;html=1;exitX=0.5;exitY=0;exitDx=0;exitDy=0;entryX=0.5;entryY=1;entryDx=0;entryDy=0;" parent="WIyWlLk6GJQsqaUBKTNV-1" source="5N3DmIChMx7B-OkHC1g6-15" target="5N3DmIChMx7B-OkHC1g6-8" edge="1">
          <mxGeometry relative="1" as="geometry">
            <Array as="points">
              <mxPoint x="660" y="360" />
              <mxPoint x="460" y="360" />
            </Array>
          </mxGeometry>
        </mxCell>
        <mxCell id="5N3DmIChMx7B-OkHC1g6-15" value="11" style="ellipse;whiteSpace=wrap;html=1;aspect=fixed;" parent="WIyWlLk6GJQsqaUBKTNV-1" vertex="1">
          <mxGeometry x="630" y="400" width="60" height="60" as="geometry" />
        </mxCell>
        <mxCell id="5N3DmIChMx7B-OkHC1g6-33" style="edgeStyle=orthogonalEdgeStyle;rounded=0;orthogonalLoop=1;jettySize=auto;html=1;exitX=0;exitY=0.5;exitDx=0;exitDy=0;entryX=1;entryY=0.5;entryDx=0;entryDy=0;" parent="WIyWlLk6GJQsqaUBKTNV-1" source="5N3DmIChMx7B-OkHC1g6-16" target="5N3DmIChMx7B-OkHC1g6-17" edge="1">
          <mxGeometry relative="1" as="geometry" />
        </mxCell>
        <mxCell id="5N3DmIChMx7B-OkHC1g6-16" value="12" style="ellipse;whiteSpace=wrap;html=1;aspect=fixed;" parent="WIyWlLk6GJQsqaUBKTNV-1" vertex="1">
          <mxGeometry x="530" y="400" width="60" height="60" as="geometry" />
        </mxCell>
        <mxCell id="5N3DmIChMx7B-OkHC1g6-34" style="edgeStyle=orthogonalEdgeStyle;rounded=0;orthogonalLoop=1;jettySize=auto;html=1;exitX=0;exitY=0.5;exitDx=0;exitDy=0;entryX=1;entryY=0.5;entryDx=0;entryDy=0;" parent="WIyWlLk6GJQsqaUBKTNV-1" source="5N3DmIChMx7B-OkHC1g6-17" target="5N3DmIChMx7B-OkHC1g6-18" edge="1">
          <mxGeometry relative="1" as="geometry" />
        </mxCell>
        <mxCell id="5N3DmIChMx7B-OkHC1g6-17" value="13" style="ellipse;whiteSpace=wrap;html=1;aspect=fixed;" parent="WIyWlLk6GJQsqaUBKTNV-1" vertex="1">
          <mxGeometry x="430" y="400" width="60" height="60" as="geometry" />
        </mxCell>
        <mxCell id="5N3DmIChMx7B-OkHC1g6-35" style="edgeStyle=orthogonalEdgeStyle;rounded=0;orthogonalLoop=1;jettySize=auto;html=1;exitX=0;exitY=0.5;exitDx=0;exitDy=0;entryX=1;entryY=0.5;entryDx=0;entryDy=0;" parent="WIyWlLk6GJQsqaUBKTNV-1" source="5N3DmIChMx7B-OkHC1g6-18" target="5N3DmIChMx7B-OkHC1g6-19" edge="1">
          <mxGeometry relative="1" as="geometry" />
        </mxCell>
        <mxCell id="5N3DmIChMx7B-OkHC1g6-18" value="14" style="ellipse;whiteSpace=wrap;html=1;aspect=fixed;" parent="WIyWlLk6GJQsqaUBKTNV-1" vertex="1">
          <mxGeometry x="330" y="400" width="60" height="60" as="geometry" />
        </mxCell>
        <mxCell id="5N3DmIChMx7B-OkHC1g6-24" style="edgeStyle=orthogonalEdgeStyle;rounded=0;orthogonalLoop=1;jettySize=auto;html=1;exitX=0.5;exitY=0;exitDx=0;exitDy=0;entryX=0.5;entryY=1;entryDx=0;entryDy=0;" parent="WIyWlLk6GJQsqaUBKTNV-1" source="5N3DmIChMx7B-OkHC1g6-19" target="5N3DmIChMx7B-OkHC1g6-8" edge="1">
          <mxGeometry relative="1" as="geometry">
            <Array as="points">
              <mxPoint x="260" y="360" />
              <mxPoint x="460" y="360" />
            </Array>
          </mxGeometry>
        </mxCell>
        <mxCell id="5N3DmIChMx7B-OkHC1g6-19" value="15" style="ellipse;whiteSpace=wrap;html=1;aspect=fixed;" parent="WIyWlLk6GJQsqaUBKTNV-1" vertex="1">
          <mxGeometry x="230" y="400" width="60" height="60" as="geometry" />
        </mxCell>
        <mxCell id="R6kx-vrt7Hx7wKXogGAD-2" style="edgeStyle=orthogonalEdgeStyle;rounded=0;orthogonalLoop=1;jettySize=auto;html=1;exitX=0;exitY=0.5;exitDx=0;exitDy=0;entryX=1;entryY=0.5;entryDx=0;entryDy=0;" parent="WIyWlLk6GJQsqaUBKTNV-1" source="R6kx-vrt7Hx7wKXogGAD-0" target="R6kx-vrt7Hx7wKXogGAD-1" edge="1">
          <mxGeometry relative="1" as="geometry" />
        </mxCell>
        <mxCell id="R6kx-vrt7Hx7wKXogGAD-0" value="text" style="ellipse;whiteSpace=wrap;html=1;aspect=fixed;" parent="WIyWlLk6GJQsqaUBKTNV-1" vertex="1">
          <mxGeometry x="130" y="90" width="60" height="60" as="geometry" />
        </mxCell>
        <mxCell id="R6kx-vrt7Hx7wKXogGAD-3" style="edgeStyle=orthogonalEdgeStyle;rounded=0;orthogonalLoop=1;jettySize=auto;html=1;exitX=0.5;exitY=1;exitDx=0;exitDy=0;" parent="WIyWlLk6GJQsqaUBKTNV-1" source="R6kx-vrt7Hx7wKXogGAD-1" target="5N3DmIChMx7B-OkHC1g6-0" edge="1">
          <mxGeometry relative="1" as="geometry" />
        </mxCell>
        <mxCell id="R6kx-vrt7Hx7wKXogGAD-1" value="pattern" style="ellipse;whiteSpace=wrap;html=1;aspect=fixed;" parent="WIyWlLk6GJQsqaUBKTNV-1" vertex="1">
          <mxGeometry x="30" y="90" width="60" height="60" as="geometry" />
        </mxCell>
      </root>
    </mxGraphModel>
  </diagram>
  <diagram id="Oho0EGAm5WANbreHgsZj" name="Page-2">
    <mxGraphModel dx="2243" dy="1866" grid="1" gridSize="10" guides="1" tooltips="1" connect="1" arrows="1" fold="1" page="1" pageScale="1" pageWidth="850" pageHeight="1100" math="0" shadow="0">
      <root>
        <mxCell id="0" />
        <mxCell id="1" parent="0" />
        <mxCell id="v9L3dXH_SQhte8DyZGJx-1" value="1" style="ellipse;whiteSpace=wrap;html=1;aspect=fixed;" parent="1" vertex="1">
          <mxGeometry x="-310" y="-590" width="60" height="60" as="geometry" />
        </mxCell>
        <mxCell id="J7oF-gN_IBlLI6bIQpnW-14" style="edgeStyle=orthogonalEdgeStyle;rounded=0;orthogonalLoop=1;jettySize=auto;html=1;exitDx=0;exitDy=0;entryDx=0;entryDy=0;noEdgeStyle=1;orthogonal=1;" parent="1" source="LD4lRG98R12n9T1KPqIg-1" target="jMnanoXJJH3JtysMR0eB-2" edge="1">
          <mxGeometry relative="1" as="geometry" />
        </mxCell>
        <mxCell id="J7oF-gN_IBlLI6bIQpnW-13" style="edgeStyle=orthogonalEdgeStyle;rounded=0;orthogonalLoop=1;jettySize=auto;html=1;exitDx=0;exitDy=0;entryDx=0;entryDy=0;noEdgeStyle=1;orthogonal=1;" parent="1" source="0YzHxsJeREexoUVTReb4-1" target="jMnanoXJJH3JtysMR0eB-1" edge="1">
          <mxGeometry relative="1" as="geometry">
            <Array as="points" />
          </mxGeometry>
        </mxCell>
        <mxCell id="BmEWpYN0h27gbv0uLTrn-1" style="edgeStyle=orthogonalEdgeStyle;rounded=0;orthogonalLoop=1;jettySize=auto;html=1;exitDx=0;exitDy=0;entryDx=0;entryDy=0;noEdgeStyle=1;orthogonal=1;" parent="1" source="0YzHxsJeREexoUVTReb4-1" target="jMnanoXJJH3JtysMR0eB-2" edge="1">
          <mxGeometry relative="1" as="geometry">
            <Array as="points" />
          </mxGeometry>
        </mxCell>
        <mxCell id="BmEWpYN0h27gbv0uLTrn-8" style="edgeStyle=orthogonalEdgeStyle;rounded=0;orthogonalLoop=1;jettySize=auto;html=1;exitX=0.5;exitY=0;exitDx=0;exitDy=0;entryX=0;entryY=0.5;entryDx=0;entryDy=0;curved=1;" parent="1" source="0YzHxsJeREexoUVTReb4-1" target="ti5MLfVTukAEMmDWLIQg-1" edge="1">
          <mxGeometry relative="1" as="geometry">
            <Array as="points">
              <mxPoint y="-620" />
              <mxPoint x="180" y="-620" />
              <mxPoint x="180" y="-560" />
            </Array>
          </mxGeometry>
        </mxCell>
        <mxCell id="0YzHxsJeREexoUVTReb4-1" value="3" style="ellipse;whiteSpace=wrap;html=1;aspect=fixed;" parent="1" vertex="1">
          <mxGeometry x="-30" y="-590" width="60" height="60" as="geometry" />
        </mxCell>
        <mxCell id="jMnanoXJJH3JtysMR0eB-3" style="edgeStyle=orthogonalEdgeStyle;rounded=0;orthogonalLoop=1;jettySize=auto;html=1;exitDx=0;exitDy=0;entryDx=0;entryDy=0;noEdgeStyle=1;orthogonal=1;jumpStyle=none;jumpSize=14;" parent="1" source="lWYmmD-hXFZz2hits-Wr-1" target="jMnanoXJJH3JtysMR0eB-1" edge="1">
          <mxGeometry relative="1" as="geometry">
            <Array as="points" />
          </mxGeometry>
        </mxCell>
        <mxCell id="CKIOwJT7jZJCFF7RbPOe-2" style="edgeStyle=orthogonalEdgeStyle;rounded=0;orthogonalLoop=1;jettySize=auto;html=1;exitDx=0;exitDy=0;entryDx=0;entryDy=0;noEdgeStyle=1;orthogonal=1;" parent="1" source="Cia9sr0GxTQ0EA5iP7ZZ-1" target="CKIOwJT7jZJCFF7RbPOe-1" edge="1">
          <mxGeometry relative="1" as="geometry">
            <Array as="points" />
          </mxGeometry>
        </mxCell>
        <mxCell id="Cia9sr0GxTQ0EA5iP7ZZ-1" value="6" style="ellipse;whiteSpace=wrap;html=1;aspect=fixed;" parent="1" vertex="1">
          <mxGeometry x="390" y="-590" width="60" height="60" as="geometry" />
        </mxCell>
        <mxCell id="CKIOwJT7jZJCFF7RbPOe-1" value="7" style="ellipse;whiteSpace=wrap;html=1;aspect=fixed;" parent="1" vertex="1">
          <mxGeometry x="390" y="-439" width="60" height="60" as="geometry" />
        </mxCell>
        <mxCell id="dteWBJM6k2trOyd8FKQT-2" style="edgeStyle=orthogonalEdgeStyle;rounded=0;orthogonalLoop=1;jettySize=auto;html=1;exitDx=0;exitDy=0;entryDx=0;entryDy=0;noEdgeStyle=1;orthogonal=1;" parent="1" source="H71InRCNpm-vg4U-x0Wi-1" target="dteWBJM6k2trOyd8FKQT-1" edge="1">
          <mxGeometry relative="1" as="geometry">
            <Array as="points" />
          </mxGeometry>
        </mxCell>
        <mxCell id="BmEWpYN0h27gbv0uLTrn-10" style="edgeStyle=orthogonalEdgeStyle;rounded=0;orthogonalLoop=1;jettySize=auto;html=1;exitX=0.5;exitY=1;exitDx=0;exitDy=0;entryX=0.5;entryY=1;entryDx=0;entryDy=0;" parent="1" source="H71InRCNpm-vg4U-x0Wi-1" target="HBCSK4XadOuIZ_sr67yc-1" edge="1">
          <mxGeometry relative="1" as="geometry">
            <Array as="points">
              <mxPoint x="280" y="-330" />
              <mxPoint x="-410" y="-330" />
            </Array>
          </mxGeometry>
        </mxCell>
        <mxCell id="H71InRCNpm-vg4U-x0Wi-1" value="8" style="ellipse;whiteSpace=wrap;html=1;aspect=fixed;" parent="1" vertex="1">
          <mxGeometry x="250" y="-439" width="60" height="60" as="geometry" />
        </mxCell>
        <mxCell id="dteWBJM6k2trOyd8FKQT-1" value="9" style="ellipse;whiteSpace=wrap;html=1;aspect=fixed;" parent="1" vertex="1">
          <mxGeometry x="110" y="-439" width="60" height="60" as="geometry" />
        </mxCell>
        <mxCell id="jMnanoXJJH3JtysMR0eB-1" value="10" style="ellipse;whiteSpace=wrap;html=1;aspect=fixed;" parent="1" vertex="1">
          <mxGeometry x="-30" y="-430" width="60" height="60" as="geometry" />
        </mxCell>
        <mxCell id="jMnanoXJJH3JtysMR0eB-2" value="11" style="ellipse;whiteSpace=wrap;html=1;aspect=fixed;" parent="1" vertex="1">
          <mxGeometry x="-310" y="-430" width="60" height="60" as="geometry" />
        </mxCell>
        <mxCell id="HBCSK4XadOuIZ_sr67yc-1" value="12" style="ellipse;whiteSpace=wrap;html=1;aspect=fixed;" parent="1" vertex="1">
          <mxGeometry x="-440" y="-430" width="60" height="60" as="geometry" />
        </mxCell>
        <mxCell id="J7oF-gN_IBlLI6bIQpnW-19" style="edgeStyle=orthogonalEdgeStyle;rounded=0;orthogonalLoop=1;jettySize=auto;html=1;exitDx=0;exitDy=0;entryDx=0;entryDy=0;noEdgeStyle=1;orthogonal=1;entryX=0.5;entryY=1;" parent="1" source="HBCSK4XadOuIZ_sr67yc-2" target="HBCSK4XadOuIZ_sr67yc-4" edge="1">
          <mxGeometry relative="1" as="geometry">
            <Array as="points">
              <mxPoint x="-280" y="-160" />
              <mxPoint x="-140" y="-160" />
              <mxPoint y="-160" />
            </Array>
          </mxGeometry>
        </mxCell>
        <mxCell id="HBCSK4XadOuIZ_sr67yc-2" value="13" style="ellipse;whiteSpace=wrap;html=1;aspect=fixed;" parent="1" vertex="1">
          <mxGeometry x="-310" y="-270" width="60" height="60" as="geometry" />
        </mxCell>
        <mxCell id="J7oF-gN_IBlLI6bIQpnW-20" style="edgeStyle=orthogonalEdgeStyle;rounded=0;orthogonalLoop=1;jettySize=auto;html=1;exitX=0.5;exitY=1;exitDx=0;exitDy=0;entryX=0.5;entryY=1;entryDx=0;entryDy=0;noEdgeStyle=1;orthogonal=1;" parent="1" source="HBCSK4XadOuIZ_sr67yc-3" target="HBCSK4XadOuIZ_sr67yc-4" edge="1">
          <mxGeometry relative="1" as="geometry">
            <Array as="points">
              <mxPoint x="-140" y="-180" />
              <mxPoint x="-70" y="-180" />
              <mxPoint y="-180" />
            </Array>
          </mxGeometry>
        </mxCell>
        <mxCell id="HBCSK4XadOuIZ_sr67yc-3" value="14" style="ellipse;whiteSpace=wrap;html=1;aspect=fixed;" parent="1" vertex="1">
          <mxGeometry x="-170" y="-270" width="60" height="60" as="geometry" />
        </mxCell>
        <mxCell id="HBCSK4XadOuIZ_sr67yc-4" value="15" style="ellipse;whiteSpace=wrap;html=1;aspect=fixed;" parent="1" vertex="1">
          <mxGeometry x="-30" y="-270" width="60" height="60" as="geometry" />
        </mxCell>
        <mxCell id="J7oF-gN_IBlLI6bIQpnW-6" style="edgeStyle=orthogonalEdgeStyle;rounded=0;orthogonalLoop=1;jettySize=auto;html=1;exitDx=0;exitDy=0;entryDx=0;entryDy=0;noEdgeStyle=1;orthogonal=1;" parent="1" source="J7oF-gN_IBlLI6bIQpnW-1" target="ti5MLfVTukAEMmDWLIQg-1" edge="1">
          <mxGeometry relative="1" as="geometry">
            <Array as="points" />
          </mxGeometry>
        </mxCell>
        <mxCell id="J7oF-gN_IBlLI6bIQpnW-12" style="edgeStyle=orthogonalEdgeStyle;rounded=0;orthogonalLoop=1;jettySize=auto;html=1;exitX=1;exitY=1;exitDx=0;exitDy=0;entryX=0.29;entryY=0.037;entryDx=0;entryDy=0;noEdgeStyle=1;orthogonal=1;entryPerimeter=0;" parent="1" source="ti5MLfVTukAEMmDWLIQg-1" target="CKIOwJT7jZJCFF7RbPOe-1" edge="1">
          <mxGeometry relative="1" as="geometry" />
        </mxCell>
        <mxCell id="J7oF-gN_IBlLI6bIQpnW-1" value="text" style="ellipse;whiteSpace=wrap;html=1;aspect=fixed;" parent="1" vertex="1">
          <mxGeometry x="250" y="-760" width="60" height="60" as="geometry" />
        </mxCell>
        <mxCell id="J7oF-gN_IBlLI6bIQpnW-3" style="edgeStyle=orthogonalEdgeStyle;rounded=0;orthogonalLoop=1;jettySize=auto;html=1;exitDx=0;exitDy=0;entryDx=0;entryDy=0;noEdgeStyle=1;orthogonal=1;exitX=0;exitY=0.5;" parent="1" source="J7oF-gN_IBlLI6bIQpnW-2" target="v9L3dXH_SQhte8DyZGJx-1" edge="1">
          <mxGeometry relative="1" as="geometry">
            <Array as="points">
              <mxPoint x="-280" y="-730" />
            </Array>
          </mxGeometry>
        </mxCell>
        <mxCell id="J7oF-gN_IBlLI6bIQpnW-4" style="edgeStyle=orthogonalEdgeStyle;rounded=0;orthogonalLoop=1;jettySize=auto;html=1;exitDx=0;exitDy=0;entryDx=0;entryDy=0;noEdgeStyle=1;orthogonal=1;" parent="1" source="J7oF-gN_IBlLI6bIQpnW-2" target="LD4lRG98R12n9T1KPqIg-1" edge="1">
          <mxGeometry relative="1" as="geometry" />
        </mxCell>
        <mxCell id="J7oF-gN_IBlLI6bIQpnW-5" style="edgeStyle=orthogonalEdgeStyle;rounded=0;orthogonalLoop=1;jettySize=auto;html=1;exitDx=0;exitDy=0;entryDx=0;entryDy=0;noEdgeStyle=1;orthogonal=1;entryX=0.5;entryY=0;jumpStyle=arc;jumpSize=14;" parent="1" source="J7oF-gN_IBlLI6bIQpnW-2" target="ti5MLfVTukAEMmDWLIQg-1" edge="1">
          <mxGeometry relative="1" as="geometry">
            <Array as="points" />
          </mxGeometry>
        </mxCell>
        <mxCell id="J7oF-gN_IBlLI6bIQpnW-10" style="edgeStyle=orthogonalEdgeStyle;rounded=0;orthogonalLoop=1;jettySize=auto;html=1;exitDx=0;exitDy=0;entryDx=0;entryDy=0;noEdgeStyle=1;orthogonal=1;entryX=1;entryY=0.5;" parent="1" source="J7oF-gN_IBlLI6bIQpnW-2" target="CKIOwJT7jZJCFF7RbPOe-1" edge="1">
          <mxGeometry relative="1" as="geometry">
            <Array as="points">
              <mxPoint x="-140" y="-800" />
              <mxPoint x="480" y="-800" />
              <mxPoint x="480" y="-410" />
            </Array>
          </mxGeometry>
        </mxCell>
        <mxCell id="J7oF-gN_IBlLI6bIQpnW-2" value="pattern" style="ellipse;whiteSpace=wrap;html=1;aspect=fixed;" parent="1" vertex="1">
          <mxGeometry x="-170" y="-760" width="60" height="60" as="geometry" />
        </mxCell>
        <mxCell id="LD4lRG98R12n9T1KPqIg-1" value="2" style="ellipse;whiteSpace=wrap;html=1;aspect=fixed;" parent="1" vertex="1">
          <mxGeometry x="-170" y="-590" width="60" height="60" as="geometry" />
        </mxCell>
        <mxCell id="lWYmmD-hXFZz2hits-Wr-1" value="4" style="ellipse;whiteSpace=wrap;html=1;aspect=fixed;" parent="1" vertex="1">
          <mxGeometry x="110" y="-590" width="60" height="60" as="geometry" />
        </mxCell>
        <mxCell id="ti5MLfVTukAEMmDWLIQg-1" value="5" style="ellipse;whiteSpace=wrap;html=1;aspect=fixed;" parent="1" vertex="1">
          <mxGeometry x="250" y="-590" width="60" height="60" as="geometry" />
        </mxCell>
        <mxCell id="BmEWpYN0h27gbv0uLTrn-9" style="rounded=0;orthogonalLoop=1;jettySize=auto;html=1;exitX=1;exitY=1;exitDx=0;exitDy=0;entryX=0.383;entryY=0.01;entryDx=0;entryDy=0;entryPerimeter=0;" parent="1" source="J7oF-gN_IBlLI6bIQpnW-1" target="CKIOwJT7jZJCFF7RbPOe-1" edge="1">
          <mxGeometry relative="1" as="geometry" />
        </mxCell>
        <mxCell id="J7oF-gN_IBlLI6bIQpnW-9" style="edgeStyle=orthogonalEdgeStyle;rounded=0;orthogonalLoop=1;jettySize=auto;html=1;exitDx=0;exitDy=0;noEdgeStyle=1;orthogonal=1;entryX=0.5;entryY=0;entryDx=0;entryDy=0;jumpStyle=arc;jumpSize=14;" parent="1" source="J7oF-gN_IBlLI6bIQpnW-2" target="Cia9sr0GxTQ0EA5iP7ZZ-1" edge="1">
          <mxGeometry relative="1" as="geometry">
            <mxPoint x="391" y="-569" as="targetPoint" />
            <Array as="points" />
          </mxGeometry>
        </mxCell>
        <mxCell id="HBCSK4XadOuIZ_sr67yc-5" style="edgeStyle=orthogonalEdgeStyle;rounded=0;orthogonalLoop=1;jettySize=auto;html=1;exitDx=0;exitDy=0;entryDx=0;entryDy=0;noEdgeStyle=1;orthogonal=1;jumpStyle=arc;jumpSize=14;" parent="1" source="Cia9sr0GxTQ0EA5iP7ZZ-1" target="H71InRCNpm-vg4U-x0Wi-1" edge="1">
          <mxGeometry relative="1" as="geometry">
            <Array as="points" />
          </mxGeometry>
        </mxCell>
        <mxCell id="J7oF-gN_IBlLI6bIQpnW-15" style="edgeStyle=orthogonalEdgeStyle;rounded=0;orthogonalLoop=1;jettySize=auto;html=1;exitDx=0;exitDy=0;entryDx=0;entryDy=0;noEdgeStyle=1;orthogonal=1;entryX=0.917;entryY=0.269;jumpStyle=arc;jumpSize=19;entryPerimeter=0;" parent="1" source="H71InRCNpm-vg4U-x0Wi-1" target="HBCSK4XadOuIZ_sr67yc-2" edge="1">
          <mxGeometry relative="1" as="geometry">
            <Array as="points" />
          </mxGeometry>
        </mxCell>
        <mxCell id="J7oF-gN_IBlLI6bIQpnW-22" style="edgeStyle=orthogonalEdgeStyle;rounded=0;orthogonalLoop=1;jettySize=auto;html=1;exitDx=0;exitDy=0;entryDx=0;entryDy=0;noEdgeStyle=1;orthogonal=1;jumpStyle=arc;jumpSize=19;" parent="1" source="H71InRCNpm-vg4U-x0Wi-1" target="HBCSK4XadOuIZ_sr67yc-3" edge="1">
          <mxGeometry relative="1" as="geometry">
            <Array as="points" />
          </mxGeometry>
        </mxCell>
        <mxCell id="BmEWpYN0h27gbv0uLTrn-15" value="" style="endArrow=classic;html=1;rounded=0;entryX=1;entryY=0;entryDx=0;entryDy=0;" parent="1" source="0YzHxsJeREexoUVTReb4-1" target="HBCSK4XadOuIZ_sr67yc-2" edge="1">
          <mxGeometry width="50" height="50" relative="1" as="geometry">
            <mxPoint x="-30" y="-380" as="sourcePoint" />
            <mxPoint x="-240" y="-240" as="targetPoint" />
          </mxGeometry>
        </mxCell>
        <mxCell id="J7oF-gN_IBlLI6bIQpnW-16" style="edgeStyle=orthogonalEdgeStyle;rounded=0;orthogonalLoop=1;jettySize=auto;html=1;exitX=0;exitY=0.5;exitDx=0;exitDy=0;entryX=0;entryY=0.5;entryDx=0;entryDy=0;noEdgeStyle=1;orthogonal=1;jumpStyle=arc;jumpSize=14;" parent="1" source="v9L3dXH_SQhte8DyZGJx-1" target="HBCSK4XadOuIZ_sr67yc-2" edge="1">
          <mxGeometry relative="1" as="geometry">
            <Array as="points">
              <mxPoint x="-360" y="-560" />
              <mxPoint x="-360" y="-240" />
            </Array>
          </mxGeometry>
        </mxCell>
        <mxCell id="J7oF-gN_IBlLI6bIQpnW-21" style="edgeStyle=orthogonalEdgeStyle;rounded=0;orthogonalLoop=1;jettySize=auto;html=1;exitDx=0;exitDy=0;entryDx=0;entryDy=0;noEdgeStyle=1;orthogonal=1;jumpStyle=arc;jumpSize=14;" parent="1" source="LD4lRG98R12n9T1KPqIg-1" target="HBCSK4XadOuIZ_sr67yc-3" edge="1">
          <mxGeometry relative="1" as="geometry" />
        </mxCell>
        <mxCell id="BmEWpYN0h27gbv0uLTrn-16" style="edgeStyle=orthogonalEdgeStyle;rounded=0;orthogonalLoop=1;jettySize=auto;html=1;exitX=0.5;exitY=0;exitDx=0;exitDy=0;entryX=0;entryY=0.5;entryDx=0;entryDy=0;jumpStyle=arc;jumpSize=14;" parent="1" source="J7oF-gN_IBlLI6bIQpnW-1" target="HBCSK4XadOuIZ_sr67yc-2" edge="1">
          <mxGeometry relative="1" as="geometry">
            <Array as="points">
              <mxPoint x="280" y="-830" />
              <mxPoint x="-460" y="-830" />
              <mxPoint x="-460" y="-220" />
              <mxPoint x="-330" y="-220" />
              <mxPoint x="-330" y="-240" />
            </Array>
          </mxGeometry>
        </mxCell>
        <mxCell id="BmEWpYN0h27gbv0uLTrn-17" style="edgeStyle=orthogonalEdgeStyle;rounded=0;orthogonalLoop=1;jettySize=auto;html=1;exitX=1;exitY=0.5;exitDx=0;exitDy=0;entryX=1;entryY=0.5;entryDx=0;entryDy=0;jumpStyle=arc;jumpSize=14;" parent="1" source="0YzHxsJeREexoUVTReb4-1" target="HBCSK4XadOuIZ_sr67yc-4" edge="1">
          <mxGeometry relative="1" as="geometry" />
        </mxCell>
        <mxCell id="iNE7ZPrNBeOWwkwGdFlU-4" value="" style="curved=1;endArrow=classic;html=1;rounded=0;exitX=0.5;exitY=0;exitDx=0;exitDy=0;entryX=0.248;entryY=0.04;entryDx=0;entryDy=0;entryPerimeter=0;" parent="1" source="jMnanoXJJH3JtysMR0eB-2" target="jMnanoXJJH3JtysMR0eB-2" edge="1">
          <mxGeometry width="50" height="50" relative="1" as="geometry">
            <mxPoint x="-320" y="-450" as="sourcePoint" />
            <mxPoint x="-270" y="-500" as="targetPoint" />
            <Array as="points">
              <mxPoint x="-280" y="-450" />
              <mxPoint x="-300" y="-460" />
              <mxPoint x="-310" y="-440" />
            </Array>
          </mxGeometry>
        </mxCell>
        <mxCell id="iNE7ZPrNBeOWwkwGdFlU-6" value="" style="curved=1;endArrow=classic;html=1;rounded=0;exitX=0.5;exitY=0;exitDx=0;exitDy=0;entryX=0.267;entryY=0.06;entryDx=0;entryDy=0;entryPerimeter=0;" parent="1" source="H71InRCNpm-vg4U-x0Wi-1" target="H71InRCNpm-vg4U-x0Wi-1" edge="1">
          <mxGeometry width="50" height="50" relative="1" as="geometry">
            <mxPoint x="280" y="-441" as="sourcePoint" />
            <mxPoint x="265" y="-439" as="targetPoint" />
            <Array as="points">
              <mxPoint x="280" y="-461" />
              <mxPoint x="260" y="-471" />
              <mxPoint x="250" y="-451" />
            </Array>
          </mxGeometry>
        </mxCell>
        <mxCell id="iNE7ZPrNBeOWwkwGdFlU-8" value="" style="curved=1;endArrow=classic;html=1;rounded=0;exitX=0.907;exitY=0.8;exitDx=0;exitDy=0;entryX=0.751;entryY=0.925;entryDx=0;entryDy=0;entryPerimeter=0;exitPerimeter=0;" parent="1" source="HBCSK4XadOuIZ_sr67yc-4" target="HBCSK4XadOuIZ_sr67yc-4" edge="1">
          <mxGeometry width="50" height="50" relative="1" as="geometry">
            <mxPoint x="40" y="-200" as="sourcePoint" />
            <mxPoint x="25" y="-198" as="targetPoint" />
            <Array as="points">
              <mxPoint x="40" y="-220" />
              <mxPoint x="50" y="-200" />
              <mxPoint x="40" y="-190" />
              <mxPoint x="20" y="-200" />
            </Array>
          </mxGeometry>
        </mxCell>
        <mxCell id="ZRFsL7yIcJSfJxQjHbYf-1" style="rounded=0;orthogonalLoop=1;jettySize=auto;html=1;exitX=0;exitY=0.5;exitDx=0;exitDy=0;entryX=1;entryY=0;entryDx=0;entryDy=0;jumpStyle=arc;jumpSize=14;" parent="1" source="Cia9sr0GxTQ0EA5iP7ZZ-1" target="dteWBJM6k2trOyd8FKQT-1" edge="1">
          <mxGeometry relative="1" as="geometry" />
        </mxCell>
      </root>
    </mxGraphModel>
  </diagram>
  <diagram id="WJB3To8FG47mu3a8rXY4" name="Page-3">
    <mxGraphModel dx="1639" dy="901" grid="1" gridSize="10" guides="1" tooltips="1" connect="1" arrows="1" fold="1" page="1" pageScale="1" pageWidth="850" pageHeight="1100" math="0" shadow="0">
      <root>
        <mxCell id="0" />
        <mxCell id="1" parent="0" />
        <mxCell id="SGeFBC_h3Qz1t6XHgx3f-1" value="1" style="ellipse;whiteSpace=wrap;html=1;aspect=fixed;" parent="1" vertex="1">
          <mxGeometry x="320" y="220" width="60" height="60" as="geometry" />
        </mxCell>
        <mxCell id="YVog-vpqwa6BN7kccvuP-34" style="edgeStyle=orthogonalEdgeStyle;rounded=0;orthogonalLoop=1;jettySize=auto;html=1;exitX=1;exitY=0.5;exitDx=0;exitDy=0;entryX=0.5;entryY=1;entryDx=0;entryDy=0;" parent="1" source="SGeFBC_h3Qz1t6XHgx3f-2" target="YVog-vpqwa6BN7kccvuP-33" edge="1">
          <mxGeometry relative="1" as="geometry" />
        </mxCell>
        <mxCell id="YVog-vpqwa6BN7kccvuP-50" style="edgeStyle=orthogonalEdgeStyle;rounded=0;orthogonalLoop=1;jettySize=auto;html=1;exitX=0.5;exitY=1;exitDx=0;exitDy=0;entryX=0.5;entryY=0;entryDx=0;entryDy=0;" parent="1" source="SGeFBC_h3Qz1t6XHgx3f-2" target="YVog-vpqwa6BN7kccvuP-49" edge="1">
          <mxGeometry relative="1" as="geometry" />
        </mxCell>
        <mxCell id="SGeFBC_h3Qz1t6XHgx3f-2" value="2" style="ellipse;whiteSpace=wrap;html=1;aspect=fixed;" parent="1" vertex="1">
          <mxGeometry x="420" y="220" width="60" height="60" as="geometry" />
        </mxCell>
        <mxCell id="YVog-vpqwa6BN7kccvuP-29" style="edgeStyle=orthogonalEdgeStyle;rounded=0;orthogonalLoop=1;jettySize=auto;html=1;exitX=0.5;exitY=1;exitDx=0;exitDy=0;entryX=0.5;entryY=0;entryDx=0;entryDy=0;" parent="1" source="SGeFBC_h3Qz1t6XHgx3f-3" target="YVog-vpqwa6BN7kccvuP-28" edge="1">
          <mxGeometry relative="1" as="geometry" />
        </mxCell>
        <mxCell id="YVog-vpqwa6BN7kccvuP-35" style="edgeStyle=orthogonalEdgeStyle;rounded=0;orthogonalLoop=1;jettySize=auto;html=1;exitX=0;exitY=0.5;exitDx=0;exitDy=0;entryX=0.5;entryY=1;entryDx=0;entryDy=0;" parent="1" source="SGeFBC_h3Qz1t6XHgx3f-3" target="YVog-vpqwa6BN7kccvuP-33" edge="1">
          <mxGeometry relative="1" as="geometry" />
        </mxCell>
        <mxCell id="YVog-vpqwa6BN7kccvuP-46" style="rounded=0;orthogonalLoop=1;jettySize=auto;html=1;exitX=0.309;exitY=0.974;exitDx=0;exitDy=0;entryX=1;entryY=0;entryDx=0;entryDy=0;jumpStyle=arc;jumpSize=14;exitPerimeter=0;" parent="1" source="SGeFBC_h3Qz1t6XHgx3f-3" target="YVog-vpqwa6BN7kccvuP-43" edge="1">
          <mxGeometry relative="1" as="geometry" />
        </mxCell>
        <mxCell id="SGeFBC_h3Qz1t6XHgx3f-3" value="3" style="ellipse;whiteSpace=wrap;html=1;aspect=fixed;" parent="1" vertex="1">
          <mxGeometry x="520" y="220" width="60" height="60" as="geometry" />
        </mxCell>
        <mxCell id="YVog-vpqwa6BN7kccvuP-30" style="edgeStyle=orthogonalEdgeStyle;rounded=0;orthogonalLoop=1;jettySize=auto;html=1;exitX=0.5;exitY=1;exitDx=0;exitDy=0;" parent="1" source="SGeFBC_h3Qz1t6XHgx3f-4" edge="1">
          <mxGeometry relative="1" as="geometry">
            <mxPoint x="610" y="360" as="targetPoint" />
          </mxGeometry>
        </mxCell>
        <mxCell id="SGeFBC_h3Qz1t6XHgx3f-4" value="4" style="ellipse;whiteSpace=wrap;html=1;aspect=fixed;" parent="1" vertex="1">
          <mxGeometry x="620" y="220" width="60" height="60" as="geometry" />
        </mxCell>
        <mxCell id="YVog-vpqwa6BN7kccvuP-9" style="edgeStyle=orthogonalEdgeStyle;rounded=0;orthogonalLoop=1;jettySize=auto;html=1;exitX=1;exitY=0.5;exitDx=0;exitDy=0;entryX=0;entryY=0.5;entryDx=0;entryDy=0;" parent="1" source="SGeFBC_h3Qz1t6XHgx3f-5" target="YVog-vpqwa6BN7kccvuP-8" edge="1">
          <mxGeometry relative="1" as="geometry" />
        </mxCell>
        <mxCell id="SGeFBC_h3Qz1t6XHgx3f-5" value="5" style="ellipse;whiteSpace=wrap;html=1;aspect=fixed;" parent="1" vertex="1">
          <mxGeometry x="160" y="460" width="60" height="60" as="geometry" />
        </mxCell>
        <mxCell id="SGeFBC_h3Qz1t6XHgx3f-29" style="edgeStyle=orthogonalEdgeStyle;rounded=0;orthogonalLoop=1;jettySize=auto;html=1;exitX=0.5;exitY=1;exitDx=0;exitDy=0;entryX=0.5;entryY=0;entryDx=0;entryDy=0;" parent="1" source="SGeFBC_h3Qz1t6XHgx3f-6" target="SGeFBC_h3Qz1t6XHgx3f-7" edge="1">
          <mxGeometry relative="1" as="geometry" />
        </mxCell>
        <mxCell id="YVog-vpqwa6BN7kccvuP-12" style="edgeStyle=orthogonalEdgeStyle;rounded=0;orthogonalLoop=1;jettySize=auto;html=1;exitX=1;exitY=0.5;exitDx=0;exitDy=0;entryX=0.5;entryY=1;entryDx=0;entryDy=0;" parent="1" source="SGeFBC_h3Qz1t6XHgx3f-6" target="YVog-vpqwa6BN7kccvuP-8" edge="1">
          <mxGeometry relative="1" as="geometry" />
        </mxCell>
        <mxCell id="YVog-vpqwa6BN7kccvuP-23" style="edgeStyle=orthogonalEdgeStyle;rounded=0;orthogonalLoop=1;jettySize=auto;html=1;exitX=0;exitY=1;exitDx=0;exitDy=0;entryX=0;entryY=0.5;entryDx=0;entryDy=0;" parent="1" source="SGeFBC_h3Qz1t6XHgx3f-6" target="SGeFBC_h3Qz1t6XHgx3f-8" edge="1">
          <mxGeometry relative="1" as="geometry">
            <Array as="points">
              <mxPoint x="50" y="601" />
              <mxPoint x="50" y="830" />
            </Array>
          </mxGeometry>
        </mxCell>
        <mxCell id="LdQGlsfs232LINJjI0_c-6" style="rounded=0;orthogonalLoop=1;jettySize=auto;html=1;exitX=1;exitY=1;exitDx=0;exitDy=0;entryX=0;entryY=0;entryDx=0;entryDy=0;" parent="1" source="SGeFBC_h3Qz1t6XHgx3f-6" target="SGeFBC_h3Qz1t6XHgx3f-9" edge="1">
          <mxGeometry relative="1" as="geometry" />
        </mxCell>
        <mxCell id="SGeFBC_h3Qz1t6XHgx3f-6" value="6" style="ellipse;whiteSpace=wrap;html=1;aspect=fixed;" parent="1" vertex="1">
          <mxGeometry x="160" y="550" width="60" height="60" as="geometry" />
        </mxCell>
        <mxCell id="YVog-vpqwa6BN7kccvuP-19" style="edgeStyle=orthogonalEdgeStyle;rounded=0;orthogonalLoop=1;jettySize=auto;html=1;exitX=1;exitY=0.5;exitDx=0;exitDy=0;entryX=0;entryY=0.5;entryDx=0;entryDy=0;" parent="1" source="SGeFBC_h3Qz1t6XHgx3f-7" target="SGeFBC_h3Qz1t6XHgx3f-32" edge="1">
          <mxGeometry relative="1" as="geometry" />
        </mxCell>
        <mxCell id="SGeFBC_h3Qz1t6XHgx3f-7" value="7" style="ellipse;whiteSpace=wrap;html=1;aspect=fixed;" parent="1" vertex="1">
          <mxGeometry x="160" y="710" width="60" height="60" as="geometry" />
        </mxCell>
        <mxCell id="YVog-vpqwa6BN7kccvuP-21" style="edgeStyle=orthogonalEdgeStyle;rounded=0;orthogonalLoop=1;jettySize=auto;html=1;exitX=1;exitY=0.5;exitDx=0;exitDy=0;entryX=0;entryY=0.5;entryDx=0;entryDy=0;" parent="1" source="SGeFBC_h3Qz1t6XHgx3f-8" target="SGeFBC_h3Qz1t6XHgx3f-33" edge="1">
          <mxGeometry relative="1" as="geometry" />
        </mxCell>
        <mxCell id="YVog-vpqwa6BN7kccvuP-39" style="rounded=0;orthogonalLoop=1;jettySize=auto;html=1;exitX=1;exitY=0;exitDx=0;exitDy=0;entryX=0;entryY=1;entryDx=0;entryDy=0;" parent="1" source="SGeFBC_h3Qz1t6XHgx3f-8" target="SGeFBC_h3Qz1t6XHgx3f-32" edge="1">
          <mxGeometry relative="1" as="geometry" />
        </mxCell>
        <mxCell id="SGeFBC_h3Qz1t6XHgx3f-8" value="8" style="ellipse;whiteSpace=wrap;html=1;aspect=fixed;" parent="1" vertex="1">
          <mxGeometry x="160" y="800" width="60" height="60" as="geometry" />
        </mxCell>
        <mxCell id="SGeFBC_h3Qz1t6XHgx3f-9" value="9" style="ellipse;whiteSpace=wrap;html=1;aspect=fixed;" parent="1" vertex="1">
          <mxGeometry x="530" y="712.5" width="60" height="60" as="geometry" />
        </mxCell>
        <mxCell id="SGeFBC_h3Qz1t6XHgx3f-10" value="10" style="ellipse;whiteSpace=wrap;html=1;aspect=fixed;" parent="1" vertex="1">
          <mxGeometry x="450" y="808.75" width="60" height="60" as="geometry" />
        </mxCell>
        <mxCell id="YVog-vpqwa6BN7kccvuP-210" style="edgeStyle=orthogonalEdgeStyle;rounded=0;orthogonalLoop=1;jettySize=auto;html=1;exitX=0.5;exitY=1;exitDx=0;exitDy=0;entryX=0.5;entryY=0;entryDx=0;entryDy=0;" parent="1" source="SGeFBC_h3Qz1t6XHgx3f-11" target="YVog-vpqwa6BN7kccvuP-60" edge="1">
          <mxGeometry relative="1" as="geometry" />
        </mxCell>
        <mxCell id="SGeFBC_h3Qz1t6XHgx3f-11" value="11" style="ellipse;whiteSpace=wrap;html=1;aspect=fixed;" parent="1" vertex="1">
          <mxGeometry x="450" y="903.75" width="60" height="60" as="geometry" />
        </mxCell>
        <mxCell id="SGeFBC_h3Qz1t6XHgx3f-12" value="12" style="ellipse;whiteSpace=wrap;html=1;aspect=fixed;" parent="1" vertex="1">
          <mxGeometry x="450" y="1008.75" width="60" height="60" as="geometry" />
        </mxCell>
        <mxCell id="SGeFBC_h3Qz1t6XHgx3f-13" value="13" style="ellipse;whiteSpace=wrap;html=1;aspect=fixed;" parent="1" vertex="1">
          <mxGeometry x="450" y="1100" width="60" height="60" as="geometry" />
        </mxCell>
        <mxCell id="YVog-vpqwa6BN7kccvuP-53" style="edgeStyle=orthogonalEdgeStyle;rounded=0;orthogonalLoop=1;jettySize=auto;html=1;exitX=0.5;exitY=1;exitDx=0;exitDy=0;entryX=0.5;entryY=0;entryDx=0;entryDy=0;" parent="1" source="SGeFBC_h3Qz1t6XHgx3f-14" target="SGeFBC_h3Qz1t6XHgx3f-15" edge="1">
          <mxGeometry relative="1" as="geometry" />
        </mxCell>
        <mxCell id="SGeFBC_h3Qz1t6XHgx3f-14" value="14" style="ellipse;whiteSpace=wrap;html=1;aspect=fixed;" parent="1" vertex="1">
          <mxGeometry x="450" y="1190" width="60" height="60" as="geometry" />
        </mxCell>
        <mxCell id="YVog-vpqwa6BN7kccvuP-211" style="edgeStyle=orthogonalEdgeStyle;rounded=0;orthogonalLoop=1;jettySize=auto;html=1;exitX=0.5;exitY=1;exitDx=0;exitDy=0;entryX=0.5;entryY=0;entryDx=0;entryDy=0;" parent="1" source="SGeFBC_h3Qz1t6XHgx3f-15" target="YVog-vpqwa6BN7kccvuP-60" edge="1">
          <mxGeometry relative="1" as="geometry" />
        </mxCell>
        <mxCell id="LdQGlsfs232LINJjI0_c-4" style="edgeStyle=orthogonalEdgeStyle;rounded=0;orthogonalLoop=1;jettySize=auto;html=1;exitX=0.5;exitY=1;exitDx=0;exitDy=0;entryX=0;entryY=1;entryDx=0;entryDy=0;" parent="1" source="SGeFBC_h3Qz1t6XHgx3f-15" target="YVog-vpqwa6BN7kccvuP-77" edge="1">
          <mxGeometry relative="1" as="geometry">
            <Array as="points">
              <mxPoint x="480" y="1380" />
              <mxPoint x="1114" y="1380" />
            </Array>
          </mxGeometry>
        </mxCell>
        <mxCell id="SGeFBC_h3Qz1t6XHgx3f-15" value="15" style="ellipse;whiteSpace=wrap;html=1;aspect=fixed;" parent="1" vertex="1">
          <mxGeometry x="450" y="1280" width="60" height="60" as="geometry" />
        </mxCell>
        <mxCell id="YVog-vpqwa6BN7kccvuP-10" style="edgeStyle=orthogonalEdgeStyle;rounded=0;orthogonalLoop=1;jettySize=auto;html=1;exitX=1;exitY=0.5;exitDx=0;exitDy=0;entryX=0;entryY=0.5;entryDx=0;entryDy=0;jumpStyle=arc;jumpSize=14;" parent="1" source="SGeFBC_h3Qz1t6XHgx3f-16" target="YVog-vpqwa6BN7kccvuP-8" edge="1">
          <mxGeometry relative="1" as="geometry">
            <Array as="points">
              <mxPoint x="160" y="410" />
              <mxPoint x="270" y="410" />
              <mxPoint x="270" y="490" />
            </Array>
          </mxGeometry>
        </mxCell>
        <mxCell id="SGeFBC_h3Qz1t6XHgx3f-16" value="text" style="ellipse;whiteSpace=wrap;html=1;aspect=fixed;" parent="1" vertex="1">
          <mxGeometry x="100" y="220" width="60" height="60" as="geometry" />
        </mxCell>
        <mxCell id="fuKrxXvGab2KhBh1Ix69-44" style="edgeStyle=orthogonalEdgeStyle;rounded=0;orthogonalLoop=1;jettySize=auto;html=1;exitX=0.5;exitY=0;exitDx=0;exitDy=0;entryX=0.5;entryY=0;entryDx=0;entryDy=0;" parent="1" source="SGeFBC_h3Qz1t6XHgx3f-17" target="SGeFBC_h3Qz1t6XHgx3f-1" edge="1">
          <mxGeometry relative="1" as="geometry" />
        </mxCell>
        <mxCell id="fuKrxXvGab2KhBh1Ix69-45" style="edgeStyle=orthogonalEdgeStyle;rounded=0;orthogonalLoop=1;jettySize=auto;html=1;exitX=0.5;exitY=0;exitDx=0;exitDy=0;entryX=0.5;entryY=0;entryDx=0;entryDy=0;" parent="1" source="SGeFBC_h3Qz1t6XHgx3f-17" target="SGeFBC_h3Qz1t6XHgx3f-2" edge="1">
          <mxGeometry relative="1" as="geometry" />
        </mxCell>
        <mxCell id="YVog-vpqwa6BN7kccvuP-4" style="edgeStyle=orthogonalEdgeStyle;rounded=0;orthogonalLoop=1;jettySize=auto;html=1;exitX=1;exitY=0.5;exitDx=0;exitDy=0;entryX=0;entryY=0.5;entryDx=0;entryDy=0;jumpStyle=arc;jumpSize=14;" parent="1" source="SGeFBC_h3Qz1t6XHgx3f-17" target="YVog-vpqwa6BN7kccvuP-8" edge="1">
          <mxGeometry relative="1" as="geometry" />
        </mxCell>
        <mxCell id="YVog-vpqwa6BN7kccvuP-11" style="edgeStyle=orthogonalEdgeStyle;rounded=0;orthogonalLoop=1;jettySize=auto;html=1;exitX=0.5;exitY=0;exitDx=0;exitDy=0;entryX=0;entryY=0.5;entryDx=0;entryDy=0;" parent="1" source="SGeFBC_h3Qz1t6XHgx3f-17" target="SGeFBC_h3Qz1t6XHgx3f-6" edge="1">
          <mxGeometry relative="1" as="geometry">
            <Array as="points">
              <mxPoint x="240" y="200" />
              <mxPoint x="50" y="200" />
              <mxPoint x="50" y="580" />
            </Array>
          </mxGeometry>
        </mxCell>
        <mxCell id="SGeFBC_h3Qz1t6XHgx3f-17" value="pattern" style="ellipse;whiteSpace=wrap;html=1;aspect=fixed;" parent="1" vertex="1">
          <mxGeometry x="210" y="220" width="60" height="60" as="geometry" />
        </mxCell>
        <mxCell id="YVog-vpqwa6BN7kccvuP-20" style="edgeStyle=orthogonalEdgeStyle;rounded=0;orthogonalLoop=1;jettySize=auto;html=1;exitX=1;exitY=0.5;exitDx=0;exitDy=0;entryX=0;entryY=0.5;entryDx=0;entryDy=0;" parent="1" source="SGeFBC_h3Qz1t6XHgx3f-32" target="SGeFBC_h3Qz1t6XHgx3f-35" edge="1">
          <mxGeometry relative="1" as="geometry" />
        </mxCell>
        <mxCell id="SGeFBC_h3Qz1t6XHgx3f-32" value="7" style="ellipse;whiteSpace=wrap;html=1;aspect=fixed;" parent="1" vertex="1">
          <mxGeometry x="250" y="710" width="60" height="60" as="geometry" />
        </mxCell>
        <mxCell id="YVog-vpqwa6BN7kccvuP-22" style="edgeStyle=orthogonalEdgeStyle;rounded=0;orthogonalLoop=1;jettySize=auto;html=1;exitX=1;exitY=0.5;exitDx=0;exitDy=0;entryX=0;entryY=0.5;entryDx=0;entryDy=0;" parent="1" source="SGeFBC_h3Qz1t6XHgx3f-33" target="SGeFBC_h3Qz1t6XHgx3f-36" edge="1">
          <mxGeometry relative="1" as="geometry" />
        </mxCell>
        <mxCell id="YVog-vpqwa6BN7kccvuP-40" style="rounded=0;orthogonalLoop=1;jettySize=auto;html=1;exitX=1;exitY=0;exitDx=0;exitDy=0;entryX=0;entryY=1;entryDx=0;entryDy=0;" parent="1" source="SGeFBC_h3Qz1t6XHgx3f-33" target="SGeFBC_h3Qz1t6XHgx3f-35" edge="1">
          <mxGeometry relative="1" as="geometry" />
        </mxCell>
        <mxCell id="SGeFBC_h3Qz1t6XHgx3f-33" value="8" style="ellipse;whiteSpace=wrap;html=1;aspect=fixed;" parent="1" vertex="1">
          <mxGeometry x="250" y="800" width="60" height="60" as="geometry" />
        </mxCell>
        <mxCell id="9o-YKEWLazrQR5-02yx1-3" style="edgeStyle=orthogonalEdgeStyle;rounded=0;orthogonalLoop=1;jettySize=auto;html=1;exitX=1;exitY=0.5;exitDx=0;exitDy=0;" edge="1" parent="1" source="SGeFBC_h3Qz1t6XHgx3f-35" target="9o-YKEWLazrQR5-02yx1-1">
          <mxGeometry relative="1" as="geometry" />
        </mxCell>
        <mxCell id="SGeFBC_h3Qz1t6XHgx3f-35" value="7" style="ellipse;whiteSpace=wrap;html=1;aspect=fixed;" parent="1" vertex="1">
          <mxGeometry x="340" y="710" width="60" height="60" as="geometry" />
        </mxCell>
        <mxCell id="SGeFBC_h3Qz1t6XHgx3f-45" style="rounded=0;orthogonalLoop=1;jettySize=auto;html=1;exitX=0.967;exitY=0.35;exitDx=0;exitDy=0;entryX=0;entryY=1;entryDx=0;entryDy=0;exitPerimeter=0;" parent="1" source="SGeFBC_h3Qz1t6XHgx3f-36" target="SGeFBC_h3Qz1t6XHgx3f-9" edge="1">
          <mxGeometry relative="1" as="geometry" />
        </mxCell>
        <mxCell id="YVog-vpqwa6BN7kccvuP-38" style="edgeStyle=orthogonalEdgeStyle;rounded=0;orthogonalLoop=1;jettySize=auto;html=1;exitX=1;exitY=0.5;exitDx=0;exitDy=0;entryX=0;entryY=0.5;entryDx=0;entryDy=0;" parent="1" source="SGeFBC_h3Qz1t6XHgx3f-36" target="SGeFBC_h3Qz1t6XHgx3f-12" edge="1">
          <mxGeometry relative="1" as="geometry">
            <Array as="points">
              <mxPoint x="420" y="830" />
              <mxPoint x="420" y="1039" />
            </Array>
          </mxGeometry>
        </mxCell>
        <mxCell id="YVog-vpqwa6BN7kccvuP-41" style="edgeStyle=orthogonalEdgeStyle;rounded=0;orthogonalLoop=1;jettySize=auto;html=1;exitX=1;exitY=0.5;exitDx=0;exitDy=0;entryX=0;entryY=0.5;entryDx=0;entryDy=0;" parent="1" source="SGeFBC_h3Qz1t6XHgx3f-36" target="SGeFBC_h3Qz1t6XHgx3f-13" edge="1">
          <mxGeometry relative="1" as="geometry">
            <Array as="points">
              <mxPoint x="420" y="830" />
              <mxPoint x="420" y="1130" />
            </Array>
          </mxGeometry>
        </mxCell>
        <mxCell id="YVog-vpqwa6BN7kccvuP-42" style="edgeStyle=orthogonalEdgeStyle;rounded=0;orthogonalLoop=1;jettySize=auto;html=1;exitX=1;exitY=0.5;exitDx=0;exitDy=0;entryX=0;entryY=0.5;entryDx=0;entryDy=0;" parent="1" source="SGeFBC_h3Qz1t6XHgx3f-36" target="SGeFBC_h3Qz1t6XHgx3f-14" edge="1">
          <mxGeometry relative="1" as="geometry">
            <Array as="points">
              <mxPoint x="420" y="830" />
              <mxPoint x="420" y="1220" />
            </Array>
          </mxGeometry>
        </mxCell>
        <mxCell id="9o-YKEWLazrQR5-02yx1-2" style="rounded=0;orthogonalLoop=1;jettySize=auto;html=1;exitX=1;exitY=0;exitDx=0;exitDy=0;entryX=0;entryY=1;entryDx=0;entryDy=0;" edge="1" parent="1" source="SGeFBC_h3Qz1t6XHgx3f-36" target="9o-YKEWLazrQR5-02yx1-1">
          <mxGeometry relative="1" as="geometry" />
        </mxCell>
        <mxCell id="SGeFBC_h3Qz1t6XHgx3f-36" value="8" style="ellipse;whiteSpace=wrap;html=1;aspect=fixed;" parent="1" vertex="1">
          <mxGeometry x="340" y="800" width="60" height="60" as="geometry" />
        </mxCell>
        <mxCell id="SGeFBC_h3Qz1t6XHgx3f-40" value="" style="shape=curlyBracket;whiteSpace=wrap;html=1;rounded=1;labelPosition=left;verticalLabelPosition=middle;align=right;verticalAlign=middle;rotation=-90;" parent="1" vertex="1">
          <mxGeometry x="272.5" y="762.5" width="20" height="255" as="geometry" />
        </mxCell>
        <mxCell id="SGeFBC_h3Qz1t6XHgx3f-41" value="while i &amp;lt;= len(text) - len(pattern)" style="text;html=1;strokeColor=none;fillColor=none;align=center;verticalAlign=middle;whiteSpace=wrap;rounded=0;" parent="1" vertex="1">
          <mxGeometry x="180" y="910" width="190" height="30" as="geometry" />
        </mxCell>
        <mxCell id="SGeFBC_h3Qz1t6XHgx3f-79" value="while i &amp;lt;= len(text) - len(pattern)" style="text;html=1;strokeColor=none;fillColor=none;align=center;verticalAlign=middle;whiteSpace=wrap;rounded=0;" parent="1" vertex="1">
          <mxGeometry x="909.91" y="1430" width="190" height="30" as="geometry" />
        </mxCell>
        <mxCell id="15Q1ql1UsYYvunz8qSXP-1" value="" style="shape=curlyBracket;whiteSpace=wrap;html=1;rounded=1;labelPosition=left;verticalLabelPosition=middle;align=right;verticalAlign=middle;rotation=-90;" parent="1" vertex="1">
          <mxGeometry x="994.91" y="450" width="20" height="1915" as="geometry" />
        </mxCell>
        <mxCell id="YVog-vpqwa6BN7kccvuP-8" value="А" style="ellipse;whiteSpace=wrap;html=1;aspect=fixed;" parent="1" vertex="1">
          <mxGeometry x="320" y="460" width="60" height="60" as="geometry" />
        </mxCell>
        <mxCell id="YVog-vpqwa6BN7kccvuP-27" style="edgeStyle=orthogonalEdgeStyle;rounded=0;orthogonalLoop=1;jettySize=auto;html=1;exitX=1;exitY=0.5;exitDx=0;exitDy=0;entryX=0;entryY=0.5;entryDx=0;entryDy=0;" parent="1" source="YVog-vpqwa6BN7kccvuP-13" target="SGeFBC_h3Qz1t6XHgx3f-7" edge="1">
          <mxGeometry relative="1" as="geometry" />
        </mxCell>
        <mxCell id="YVog-vpqwa6BN7kccvuP-13" value="А" style="ellipse;whiteSpace=wrap;html=1;aspect=fixed;" parent="1" vertex="1">
          <mxGeometry x="60" y="710" width="60" height="60" as="geometry" />
        </mxCell>
        <mxCell id="YVog-vpqwa6BN7kccvuP-28" value="B" style="ellipse;whiteSpace=wrap;html=1;aspect=fixed;" parent="1" vertex="1">
          <mxGeometry x="580" y="360" width="60" height="60" as="geometry" />
        </mxCell>
        <mxCell id="YVog-vpqwa6BN7kccvuP-32" style="edgeStyle=orthogonalEdgeStyle;rounded=0;orthogonalLoop=1;jettySize=auto;html=1;exitX=0;exitY=0.5;exitDx=0;exitDy=0;" parent="1" source="YVog-vpqwa6BN7kccvuP-31" target="SGeFBC_h3Qz1t6XHgx3f-10" edge="1">
          <mxGeometry relative="1" as="geometry" />
        </mxCell>
        <mxCell id="YVog-vpqwa6BN7kccvuP-31" value="B" style="ellipse;whiteSpace=wrap;html=1;aspect=fixed;" parent="1" vertex="1">
          <mxGeometry x="560" y="808.75" width="60" height="60" as="geometry" />
        </mxCell>
        <mxCell id="YVog-vpqwa6BN7kccvuP-33" value="C" style="ellipse;whiteSpace=wrap;html=1;aspect=fixed;" parent="1" vertex="1">
          <mxGeometry x="470" y="60" width="60" height="60" as="geometry" />
        </mxCell>
        <mxCell id="YVog-vpqwa6BN7kccvuP-37" style="edgeStyle=orthogonalEdgeStyle;rounded=0;orthogonalLoop=1;jettySize=auto;html=1;exitX=0;exitY=0.5;exitDx=0;exitDy=0;entryX=1;entryY=0.5;entryDx=0;entryDy=0;" parent="1" source="YVog-vpqwa6BN7kccvuP-36" target="SGeFBC_h3Qz1t6XHgx3f-11" edge="1">
          <mxGeometry relative="1" as="geometry" />
        </mxCell>
        <mxCell id="YVog-vpqwa6BN7kccvuP-36" value="C" style="ellipse;whiteSpace=wrap;html=1;aspect=fixed;" parent="1" vertex="1">
          <mxGeometry x="560" y="903.75" width="60" height="60" as="geometry" />
        </mxCell>
        <mxCell id="YVog-vpqwa6BN7kccvuP-43" value="D" style="ellipse;whiteSpace=wrap;html=1;aspect=fixed;" parent="1" vertex="1">
          <mxGeometry x="440" y="430" width="60" height="60" as="geometry" />
        </mxCell>
        <mxCell id="YVog-vpqwa6BN7kccvuP-44" style="rounded=0;orthogonalLoop=1;jettySize=auto;html=1;exitX=0.5;exitY=1;exitDx=0;exitDy=0;entryX=0.381;entryY=0.031;entryDx=0;entryDy=0;jumpStyle=arc;jumpSize=14;entryPerimeter=0;" parent="1" source="SGeFBC_h3Qz1t6XHgx3f-1" target="YVog-vpqwa6BN7kccvuP-43" edge="1">
          <mxGeometry relative="1" as="geometry" />
        </mxCell>
        <mxCell id="YVog-vpqwa6BN7kccvuP-45" style="rounded=0;orthogonalLoop=1;jettySize=auto;html=1;exitX=1;exitY=0.5;exitDx=0;exitDy=0;entryX=0;entryY=0;entryDx=0;entryDy=0;jumpStyle=arc;jumpSize=14;" parent="1" source="SGeFBC_h3Qz1t6XHgx3f-16" target="YVog-vpqwa6BN7kccvuP-43" edge="1">
          <mxGeometry relative="1" as="geometry" />
        </mxCell>
        <mxCell id="YVog-vpqwa6BN7kccvuP-48" style="edgeStyle=orthogonalEdgeStyle;rounded=0;orthogonalLoop=1;jettySize=auto;html=1;exitX=0;exitY=0.5;exitDx=0;exitDy=0;entryX=1;entryY=0.5;entryDx=0;entryDy=0;" parent="1" source="YVog-vpqwa6BN7kccvuP-47" target="SGeFBC_h3Qz1t6XHgx3f-13" edge="1">
          <mxGeometry relative="1" as="geometry" />
        </mxCell>
        <mxCell id="YVog-vpqwa6BN7kccvuP-47" value="D" style="ellipse;whiteSpace=wrap;html=1;aspect=fixed;" parent="1" vertex="1">
          <mxGeometry x="550" y="1100" width="60" height="60" as="geometry" />
        </mxCell>
        <mxCell id="YVog-vpqwa6BN7kccvuP-49" value="E" style="ellipse;whiteSpace=wrap;html=1;aspect=fixed;" parent="1" vertex="1">
          <mxGeometry x="420" y="300" width="60" height="60" as="geometry" />
        </mxCell>
        <mxCell id="YVog-vpqwa6BN7kccvuP-52" style="edgeStyle=orthogonalEdgeStyle;rounded=0;orthogonalLoop=1;jettySize=auto;html=1;exitX=0;exitY=0.5;exitDx=0;exitDy=0;entryX=1;entryY=0.5;entryDx=0;entryDy=0;" parent="1" source="YVog-vpqwa6BN7kccvuP-51" target="SGeFBC_h3Qz1t6XHgx3f-14" edge="1">
          <mxGeometry relative="1" as="geometry" />
        </mxCell>
        <mxCell id="YVog-vpqwa6BN7kccvuP-51" value="E" style="ellipse;whiteSpace=wrap;html=1;aspect=fixed;" parent="1" vertex="1">
          <mxGeometry x="550" y="1190" width="60" height="60" as="geometry" />
        </mxCell>
        <mxCell id="YVog-vpqwa6BN7kccvuP-54" style="edgeStyle=orthogonalEdgeStyle;rounded=0;orthogonalLoop=1;jettySize=auto;html=1;exitX=0;exitY=1;exitDx=0;exitDy=0;entryX=0;entryY=0.5;entryDx=0;entryDy=0;jumpStyle=arc;jumpSize=14;" parent="1" source="SGeFBC_h3Qz1t6XHgx3f-13" target="SGeFBC_h3Qz1t6XHgx3f-15" edge="1">
          <mxGeometry relative="1" as="geometry">
            <Array as="points">
              <mxPoint x="430" y="1151" />
              <mxPoint x="430" y="1310" />
            </Array>
          </mxGeometry>
        </mxCell>
        <mxCell id="YVog-vpqwa6BN7kccvuP-55" value="F" style="ellipse;whiteSpace=wrap;html=1;aspect=fixed;" parent="1" vertex="1">
          <mxGeometry x="580" y="60" width="60" height="60" as="geometry" />
        </mxCell>
        <mxCell id="YVog-vpqwa6BN7kccvuP-56" value="" style="endArrow=classic;html=1;rounded=0;exitX=0.694;exitY=0.043;exitDx=0;exitDy=0;exitPerimeter=0;entryX=0.41;entryY=1.007;entryDx=0;entryDy=0;entryPerimeter=0;" parent="1" source="SGeFBC_h3Qz1t6XHgx3f-3" target="YVog-vpqwa6BN7kccvuP-55" edge="1">
          <mxGeometry width="50" height="50" relative="1" as="geometry">
            <mxPoint x="570" y="230" as="sourcePoint" />
            <mxPoint x="620" y="180" as="targetPoint" />
          </mxGeometry>
        </mxCell>
        <mxCell id="YVog-vpqwa6BN7kccvuP-58" style="edgeStyle=orthogonalEdgeStyle;rounded=0;orthogonalLoop=1;jettySize=auto;html=1;exitX=0;exitY=0.5;exitDx=0;exitDy=0;entryX=1;entryY=0.5;entryDx=0;entryDy=0;" parent="1" source="YVog-vpqwa6BN7kccvuP-57" target="SGeFBC_h3Qz1t6XHgx3f-15" edge="1">
          <mxGeometry relative="1" as="geometry" />
        </mxCell>
        <mxCell id="YVog-vpqwa6BN7kccvuP-57" value="F" style="ellipse;whiteSpace=wrap;html=1;aspect=fixed;" parent="1" vertex="1">
          <mxGeometry x="550" y="1280" width="60" height="60" as="geometry" />
        </mxCell>
        <mxCell id="YVog-vpqwa6BN7kccvuP-59" style="edgeStyle=orthogonalEdgeStyle;rounded=0;orthogonalLoop=1;jettySize=auto;html=1;exitX=1;exitY=0.5;exitDx=0;exitDy=0;entryX=0;entryY=0.5;entryDx=0;entryDy=0;" parent="1" source="YVog-vpqwa6BN7kccvuP-60" target="YVog-vpqwa6BN7kccvuP-91" edge="1">
          <mxGeometry relative="1" as="geometry" />
        </mxCell>
        <mxCell id="YVog-vpqwa6BN7kccvuP-60" value="5" style="ellipse;whiteSpace=wrap;html=1;aspect=fixed;" parent="1" vertex="1">
          <mxGeometry x="814.91" y="470" width="60" height="60" as="geometry" />
        </mxCell>
        <mxCell id="YVog-vpqwa6BN7kccvuP-61" style="edgeStyle=orthogonalEdgeStyle;rounded=0;orthogonalLoop=1;jettySize=auto;html=1;exitX=0.5;exitY=1;exitDx=0;exitDy=0;entryX=0.5;entryY=0;entryDx=0;entryDy=0;" parent="1" source="YVog-vpqwa6BN7kccvuP-64" target="YVog-vpqwa6BN7kccvuP-66" edge="1">
          <mxGeometry relative="1" as="geometry" />
        </mxCell>
        <mxCell id="YVog-vpqwa6BN7kccvuP-62" style="edgeStyle=orthogonalEdgeStyle;rounded=0;orthogonalLoop=1;jettySize=auto;html=1;exitX=1;exitY=0.5;exitDx=0;exitDy=0;entryX=0.5;entryY=1;entryDx=0;entryDy=0;" parent="1" source="YVog-vpqwa6BN7kccvuP-64" target="YVog-vpqwa6BN7kccvuP-91" edge="1">
          <mxGeometry relative="1" as="geometry" />
        </mxCell>
        <mxCell id="YVog-vpqwa6BN7kccvuP-63" style="edgeStyle=orthogonalEdgeStyle;rounded=0;orthogonalLoop=1;jettySize=auto;html=1;exitX=0;exitY=1;exitDx=0;exitDy=0;entryX=0;entryY=0.5;entryDx=0;entryDy=0;" parent="1" source="YVog-vpqwa6BN7kccvuP-64" target="YVog-vpqwa6BN7kccvuP-69" edge="1">
          <mxGeometry relative="1" as="geometry">
            <Array as="points">
              <mxPoint x="704.91" y="611" />
              <mxPoint x="704.91" y="840" />
            </Array>
          </mxGeometry>
        </mxCell>
        <mxCell id="YVog-vpqwa6BN7kccvuP-64" value="6" style="ellipse;whiteSpace=wrap;html=1;aspect=fixed;" parent="1" vertex="1">
          <mxGeometry x="814.91" y="560" width="60" height="60" as="geometry" />
        </mxCell>
        <mxCell id="YVog-vpqwa6BN7kccvuP-65" style="edgeStyle=orthogonalEdgeStyle;rounded=0;orthogonalLoop=1;jettySize=auto;html=1;exitX=1;exitY=0.5;exitDx=0;exitDy=0;entryX=0;entryY=0.5;entryDx=0;entryDy=0;" parent="1" source="YVog-vpqwa6BN7kccvuP-66" target="YVog-vpqwa6BN7kccvuP-79" edge="1">
          <mxGeometry relative="1" as="geometry" />
        </mxCell>
        <mxCell id="YVog-vpqwa6BN7kccvuP-66" value="7" style="ellipse;whiteSpace=wrap;html=1;aspect=fixed;" parent="1" vertex="1">
          <mxGeometry x="814.91" y="720" width="60" height="60" as="geometry" />
        </mxCell>
        <mxCell id="YVog-vpqwa6BN7kccvuP-67" style="edgeStyle=orthogonalEdgeStyle;rounded=0;orthogonalLoop=1;jettySize=auto;html=1;exitX=1;exitY=0.5;exitDx=0;exitDy=0;entryX=0;entryY=0.5;entryDx=0;entryDy=0;" parent="1" source="YVog-vpqwa6BN7kccvuP-69" target="YVog-vpqwa6BN7kccvuP-82" edge="1">
          <mxGeometry relative="1" as="geometry" />
        </mxCell>
        <mxCell id="YVog-vpqwa6BN7kccvuP-68" style="rounded=0;orthogonalLoop=1;jettySize=auto;html=1;exitX=1;exitY=0;exitDx=0;exitDy=0;entryX=0;entryY=1;entryDx=0;entryDy=0;" parent="1" source="YVog-vpqwa6BN7kccvuP-69" target="YVog-vpqwa6BN7kccvuP-79" edge="1">
          <mxGeometry relative="1" as="geometry" />
        </mxCell>
        <mxCell id="YVog-vpqwa6BN7kccvuP-69" value="8" style="ellipse;whiteSpace=wrap;html=1;aspect=fixed;" parent="1" vertex="1">
          <mxGeometry x="814.91" y="810" width="60" height="60" as="geometry" />
        </mxCell>
        <mxCell id="YVog-vpqwa6BN7kccvuP-70" value="9" style="ellipse;whiteSpace=wrap;html=1;aspect=fixed;" parent="1" vertex="1">
          <mxGeometry x="1179.9999999999998" y="720" width="60" height="60" as="geometry" />
        </mxCell>
        <mxCell id="YVog-vpqwa6BN7kccvuP-71" value="10" style="ellipse;whiteSpace=wrap;html=1;aspect=fixed;" parent="1" vertex="1">
          <mxGeometry x="1104.9099999999999" y="818.75" width="60" height="60" as="geometry" />
        </mxCell>
        <mxCell id="YVog-vpqwa6BN7kccvuP-213" style="edgeStyle=orthogonalEdgeStyle;rounded=0;orthogonalLoop=1;jettySize=auto;html=1;exitX=0.5;exitY=1;exitDx=0;exitDy=0;entryX=0.5;entryY=0;entryDx=0;entryDy=0;" parent="1" source="YVog-vpqwa6BN7kccvuP-72" target="YVog-vpqwa6BN7kccvuP-162" edge="1">
          <mxGeometry relative="1" as="geometry" />
        </mxCell>
        <mxCell id="YVog-vpqwa6BN7kccvuP-72" value="11" style="ellipse;whiteSpace=wrap;html=1;aspect=fixed;" parent="1" vertex="1">
          <mxGeometry x="1104.9099999999999" y="913.75" width="60" height="60" as="geometry" />
        </mxCell>
        <mxCell id="YVog-vpqwa6BN7kccvuP-73" value="12" style="ellipse;whiteSpace=wrap;html=1;aspect=fixed;" parent="1" vertex="1">
          <mxGeometry x="1104.9099999999999" y="1018.75" width="60" height="60" as="geometry" />
        </mxCell>
        <mxCell id="YVog-vpqwa6BN7kccvuP-74" value="13" style="ellipse;whiteSpace=wrap;html=1;aspect=fixed;" parent="1" vertex="1">
          <mxGeometry x="1104.9099999999999" y="1110" width="60" height="60" as="geometry" />
        </mxCell>
        <mxCell id="YVog-vpqwa6BN7kccvuP-75" style="edgeStyle=orthogonalEdgeStyle;rounded=0;orthogonalLoop=1;jettySize=auto;html=1;exitX=0.5;exitY=1;exitDx=0;exitDy=0;entryX=0.5;entryY=0;entryDx=0;entryDy=0;" parent="1" source="YVog-vpqwa6BN7kccvuP-76" target="YVog-vpqwa6BN7kccvuP-77" edge="1">
          <mxGeometry relative="1" as="geometry" />
        </mxCell>
        <mxCell id="YVog-vpqwa6BN7kccvuP-76" value="14" style="ellipse;whiteSpace=wrap;html=1;aspect=fixed;" parent="1" vertex="1">
          <mxGeometry x="1104.9099999999999" y="1200" width="60" height="60" as="geometry" />
        </mxCell>
        <mxCell id="YVog-vpqwa6BN7kccvuP-212" style="edgeStyle=orthogonalEdgeStyle;rounded=0;orthogonalLoop=1;jettySize=auto;html=1;exitX=0.5;exitY=1;exitDx=0;exitDy=0;entryX=0.5;entryY=0;entryDx=0;entryDy=0;" parent="1" source="YVog-vpqwa6BN7kccvuP-77" target="YVog-vpqwa6BN7kccvuP-162" edge="1">
          <mxGeometry relative="1" as="geometry" />
        </mxCell>
        <mxCell id="LdQGlsfs232LINJjI0_c-5" style="edgeStyle=orthogonalEdgeStyle;rounded=0;orthogonalLoop=1;jettySize=auto;html=1;exitX=0.5;exitY=1;exitDx=0;exitDy=0;entryX=0.5;entryY=1;entryDx=0;entryDy=0;" parent="1" source="YVog-vpqwa6BN7kccvuP-77" target="YVog-vpqwa6BN7kccvuP-179" edge="1">
          <mxGeometry relative="1" as="geometry">
            <Array as="points">
              <mxPoint x="1135" y="1380" />
              <mxPoint x="1790" y="1380" />
            </Array>
          </mxGeometry>
        </mxCell>
        <mxCell id="YVog-vpqwa6BN7kccvuP-77" value="15" style="ellipse;whiteSpace=wrap;html=1;aspect=fixed;" parent="1" vertex="1">
          <mxGeometry x="1104.9099999999999" y="1290" width="60" height="60" as="geometry" />
        </mxCell>
        <mxCell id="YVog-vpqwa6BN7kccvuP-78" style="edgeStyle=orthogonalEdgeStyle;rounded=0;orthogonalLoop=1;jettySize=auto;html=1;exitX=1;exitY=0.5;exitDx=0;exitDy=0;entryX=0;entryY=0.5;entryDx=0;entryDy=0;" parent="1" source="YVog-vpqwa6BN7kccvuP-79" target="YVog-vpqwa6BN7kccvuP-83" edge="1">
          <mxGeometry relative="1" as="geometry" />
        </mxCell>
        <mxCell id="YVog-vpqwa6BN7kccvuP-79" value="7" style="ellipse;whiteSpace=wrap;html=1;aspect=fixed;" parent="1" vertex="1">
          <mxGeometry x="904.91" y="720" width="60" height="60" as="geometry" />
        </mxCell>
        <mxCell id="YVog-vpqwa6BN7kccvuP-80" style="edgeStyle=orthogonalEdgeStyle;rounded=0;orthogonalLoop=1;jettySize=auto;html=1;exitX=1;exitY=0.5;exitDx=0;exitDy=0;entryX=0;entryY=0.5;entryDx=0;entryDy=0;" parent="1" source="YVog-vpqwa6BN7kccvuP-82" target="YVog-vpqwa6BN7kccvuP-88" edge="1">
          <mxGeometry relative="1" as="geometry" />
        </mxCell>
        <mxCell id="YVog-vpqwa6BN7kccvuP-81" style="rounded=0;orthogonalLoop=1;jettySize=auto;html=1;exitX=1;exitY=0;exitDx=0;exitDy=0;entryX=0;entryY=1;entryDx=0;entryDy=0;" parent="1" source="YVog-vpqwa6BN7kccvuP-82" target="YVog-vpqwa6BN7kccvuP-83" edge="1">
          <mxGeometry relative="1" as="geometry" />
        </mxCell>
        <mxCell id="YVog-vpqwa6BN7kccvuP-82" value="8" style="ellipse;whiteSpace=wrap;html=1;aspect=fixed;" parent="1" vertex="1">
          <mxGeometry x="904.91" y="810" width="60" height="60" as="geometry" />
        </mxCell>
        <mxCell id="9o-YKEWLazrQR5-02yx1-6" style="edgeStyle=orthogonalEdgeStyle;rounded=0;orthogonalLoop=1;jettySize=auto;html=1;exitX=1;exitY=0.5;exitDx=0;exitDy=0;entryX=0;entryY=0.5;entryDx=0;entryDy=0;" edge="1" parent="1" source="YVog-vpqwa6BN7kccvuP-83" target="9o-YKEWLazrQR5-02yx1-4">
          <mxGeometry relative="1" as="geometry" />
        </mxCell>
        <mxCell id="YVog-vpqwa6BN7kccvuP-83" value="7" style="ellipse;whiteSpace=wrap;html=1;aspect=fixed;" parent="1" vertex="1">
          <mxGeometry x="994.91" y="720" width="60" height="60" as="geometry" />
        </mxCell>
        <mxCell id="YVog-vpqwa6BN7kccvuP-84" style="rounded=0;orthogonalLoop=1;jettySize=auto;html=1;exitX=0.957;exitY=0.311;exitDx=0;exitDy=0;entryX=0;entryY=1;entryDx=0;entryDy=0;exitPerimeter=0;" parent="1" source="YVog-vpqwa6BN7kccvuP-88" target="YVog-vpqwa6BN7kccvuP-70" edge="1">
          <mxGeometry relative="1" as="geometry" />
        </mxCell>
        <mxCell id="YVog-vpqwa6BN7kccvuP-85" style="edgeStyle=orthogonalEdgeStyle;rounded=0;orthogonalLoop=1;jettySize=auto;html=1;exitX=1;exitY=0.5;exitDx=0;exitDy=0;entryX=0;entryY=0.5;entryDx=0;entryDy=0;" parent="1" source="YVog-vpqwa6BN7kccvuP-88" target="YVog-vpqwa6BN7kccvuP-73" edge="1">
          <mxGeometry relative="1" as="geometry">
            <Array as="points">
              <mxPoint x="1074.9099999999999" y="840" />
              <mxPoint x="1074.9099999999999" y="1049" />
            </Array>
          </mxGeometry>
        </mxCell>
        <mxCell id="YVog-vpqwa6BN7kccvuP-86" style="edgeStyle=orthogonalEdgeStyle;rounded=0;orthogonalLoop=1;jettySize=auto;html=1;exitX=1;exitY=0.5;exitDx=0;exitDy=0;entryX=0;entryY=0.5;entryDx=0;entryDy=0;" parent="1" source="YVog-vpqwa6BN7kccvuP-88" target="YVog-vpqwa6BN7kccvuP-74" edge="1">
          <mxGeometry relative="1" as="geometry">
            <Array as="points">
              <mxPoint x="1074.9099999999999" y="840" />
              <mxPoint x="1074.9099999999999" y="1140" />
            </Array>
          </mxGeometry>
        </mxCell>
        <mxCell id="YVog-vpqwa6BN7kccvuP-87" style="edgeStyle=orthogonalEdgeStyle;rounded=0;orthogonalLoop=1;jettySize=auto;html=1;exitX=1;exitY=0.5;exitDx=0;exitDy=0;entryX=0;entryY=0.5;entryDx=0;entryDy=0;" parent="1" source="YVog-vpqwa6BN7kccvuP-88" target="YVog-vpqwa6BN7kccvuP-76" edge="1">
          <mxGeometry relative="1" as="geometry">
            <Array as="points">
              <mxPoint x="1074.9099999999999" y="840" />
              <mxPoint x="1074.9099999999999" y="1230" />
            </Array>
          </mxGeometry>
        </mxCell>
        <mxCell id="9o-YKEWLazrQR5-02yx1-5" style="rounded=0;orthogonalLoop=1;jettySize=auto;html=1;exitX=1;exitY=0;exitDx=0;exitDy=0;entryX=0;entryY=1;entryDx=0;entryDy=0;" edge="1" parent="1" source="YVog-vpqwa6BN7kccvuP-88" target="9o-YKEWLazrQR5-02yx1-4">
          <mxGeometry relative="1" as="geometry" />
        </mxCell>
        <mxCell id="YVog-vpqwa6BN7kccvuP-88" value="8" style="ellipse;whiteSpace=wrap;html=1;aspect=fixed;" parent="1" vertex="1">
          <mxGeometry x="994.91" y="810" width="60" height="60" as="geometry" />
        </mxCell>
        <mxCell id="YVog-vpqwa6BN7kccvuP-89" value="" style="shape=curlyBracket;whiteSpace=wrap;html=1;rounded=1;labelPosition=left;verticalLabelPosition=middle;align=right;verticalAlign=middle;rotation=-90;" parent="1" vertex="1">
          <mxGeometry x="927.41" y="772.5" width="20" height="255" as="geometry" />
        </mxCell>
        <mxCell id="YVog-vpqwa6BN7kccvuP-90" value="while i &amp;lt;= len(text) - len(pattern)" style="text;html=1;strokeColor=none;fillColor=none;align=center;verticalAlign=middle;whiteSpace=wrap;rounded=0;" parent="1" vertex="1">
          <mxGeometry x="834.91" y="920" width="190" height="30" as="geometry" />
        </mxCell>
        <mxCell id="YVog-vpqwa6BN7kccvuP-91" value="А" style="ellipse;whiteSpace=wrap;html=1;aspect=fixed;" parent="1" vertex="1">
          <mxGeometry x="974.91" y="470" width="60" height="60" as="geometry" />
        </mxCell>
        <mxCell id="YVog-vpqwa6BN7kccvuP-92" style="edgeStyle=orthogonalEdgeStyle;rounded=0;orthogonalLoop=1;jettySize=auto;html=1;exitX=1;exitY=0.5;exitDx=0;exitDy=0;entryX=0;entryY=0.5;entryDx=0;entryDy=0;" parent="1" source="YVog-vpqwa6BN7kccvuP-93" target="YVog-vpqwa6BN7kccvuP-66" edge="1">
          <mxGeometry relative="1" as="geometry" />
        </mxCell>
        <mxCell id="YVog-vpqwa6BN7kccvuP-93" value="А" style="ellipse;whiteSpace=wrap;html=1;aspect=fixed;" parent="1" vertex="1">
          <mxGeometry x="714.91" y="720" width="60" height="60" as="geometry" />
        </mxCell>
        <mxCell id="YVog-vpqwa6BN7kccvuP-94" style="edgeStyle=orthogonalEdgeStyle;rounded=0;orthogonalLoop=1;jettySize=auto;html=1;exitX=0;exitY=0.5;exitDx=0;exitDy=0;" parent="1" source="YVog-vpqwa6BN7kccvuP-95" target="YVog-vpqwa6BN7kccvuP-71" edge="1">
          <mxGeometry relative="1" as="geometry" />
        </mxCell>
        <mxCell id="YVog-vpqwa6BN7kccvuP-95" value="B" style="ellipse;whiteSpace=wrap;html=1;aspect=fixed;" parent="1" vertex="1">
          <mxGeometry x="1214.9099999999999" y="818.75" width="60" height="60" as="geometry" />
        </mxCell>
        <mxCell id="YVog-vpqwa6BN7kccvuP-96" style="edgeStyle=orthogonalEdgeStyle;rounded=0;orthogonalLoop=1;jettySize=auto;html=1;exitX=0;exitY=0.5;exitDx=0;exitDy=0;entryX=1;entryY=0.5;entryDx=0;entryDy=0;" parent="1" source="YVog-vpqwa6BN7kccvuP-97" target="YVog-vpqwa6BN7kccvuP-72" edge="1">
          <mxGeometry relative="1" as="geometry" />
        </mxCell>
        <mxCell id="YVog-vpqwa6BN7kccvuP-97" value="C" style="ellipse;whiteSpace=wrap;html=1;aspect=fixed;" parent="1" vertex="1">
          <mxGeometry x="1214.9099999999999" y="913.75" width="60" height="60" as="geometry" />
        </mxCell>
        <mxCell id="YVog-vpqwa6BN7kccvuP-99" style="edgeStyle=orthogonalEdgeStyle;rounded=0;orthogonalLoop=1;jettySize=auto;html=1;exitX=0;exitY=0.5;exitDx=0;exitDy=0;entryX=1;entryY=0.5;entryDx=0;entryDy=0;" parent="1" source="YVog-vpqwa6BN7kccvuP-100" target="YVog-vpqwa6BN7kccvuP-74" edge="1">
          <mxGeometry relative="1" as="geometry" />
        </mxCell>
        <mxCell id="YVog-vpqwa6BN7kccvuP-100" value="D" style="ellipse;whiteSpace=wrap;html=1;aspect=fixed;" parent="1" vertex="1">
          <mxGeometry x="1204.9099999999999" y="1110" width="60" height="60" as="geometry" />
        </mxCell>
        <mxCell id="YVog-vpqwa6BN7kccvuP-101" style="edgeStyle=orthogonalEdgeStyle;rounded=0;orthogonalLoop=1;jettySize=auto;html=1;exitX=0;exitY=0.5;exitDx=0;exitDy=0;entryX=1;entryY=0.5;entryDx=0;entryDy=0;" parent="1" source="YVog-vpqwa6BN7kccvuP-102" target="YVog-vpqwa6BN7kccvuP-76" edge="1">
          <mxGeometry relative="1" as="geometry" />
        </mxCell>
        <mxCell id="YVog-vpqwa6BN7kccvuP-102" value="E" style="ellipse;whiteSpace=wrap;html=1;aspect=fixed;" parent="1" vertex="1">
          <mxGeometry x="1204.9099999999999" y="1200" width="60" height="60" as="geometry" />
        </mxCell>
        <mxCell id="YVog-vpqwa6BN7kccvuP-103" style="edgeStyle=orthogonalEdgeStyle;rounded=0;orthogonalLoop=1;jettySize=auto;html=1;exitX=0;exitY=1;exitDx=0;exitDy=0;entryX=0;entryY=0.5;entryDx=0;entryDy=0;jumpStyle=arc;jumpSize=14;" parent="1" source="YVog-vpqwa6BN7kccvuP-74" target="YVog-vpqwa6BN7kccvuP-77" edge="1">
          <mxGeometry relative="1" as="geometry">
            <Array as="points">
              <mxPoint x="1084.9099999999999" y="1161" />
              <mxPoint x="1084.9099999999999" y="1320" />
            </Array>
          </mxGeometry>
        </mxCell>
        <mxCell id="YVog-vpqwa6BN7kccvuP-104" style="edgeStyle=orthogonalEdgeStyle;rounded=0;orthogonalLoop=1;jettySize=auto;html=1;exitX=0;exitY=0.5;exitDx=0;exitDy=0;entryX=1;entryY=0.5;entryDx=0;entryDy=0;" parent="1" source="YVog-vpqwa6BN7kccvuP-105" target="YVog-vpqwa6BN7kccvuP-77" edge="1">
          <mxGeometry relative="1" as="geometry" />
        </mxCell>
        <mxCell id="YVog-vpqwa6BN7kccvuP-105" value="F" style="ellipse;whiteSpace=wrap;html=1;aspect=fixed;" parent="1" vertex="1">
          <mxGeometry x="1204.9099999999999" y="1290" width="60" height="60" as="geometry" />
        </mxCell>
        <mxCell id="YVog-vpqwa6BN7kccvuP-106" value="G" style="ellipse;whiteSpace=wrap;html=1;aspect=fixed;" parent="1" vertex="1">
          <mxGeometry x="150" y="50" width="60" height="60" as="geometry" />
        </mxCell>
        <mxCell id="YVog-vpqwa6BN7kccvuP-107" value="" style="endArrow=classic;html=1;rounded=0;exitX=0.5;exitY=0;exitDx=0;exitDy=0;jumpStyle=arc;jumpSize=14;" parent="1" source="SGeFBC_h3Qz1t6XHgx3f-16" target="YVog-vpqwa6BN7kccvuP-106" edge="1">
          <mxGeometry width="50" height="50" relative="1" as="geometry">
            <mxPoint x="110" y="200" as="sourcePoint" />
            <mxPoint x="160" y="150" as="targetPoint" />
          </mxGeometry>
        </mxCell>
        <mxCell id="YVog-vpqwa6BN7kccvuP-108" value="" style="endArrow=classic;html=1;rounded=0;exitX=0.298;exitY=-0.005;exitDx=0;exitDy=0;entryX=0.836;entryY=0.952;entryDx=0;entryDy=0;entryPerimeter=0;jumpStyle=arc;jumpSize=14;exitPerimeter=0;" parent="1" source="SGeFBC_h3Qz1t6XHgx3f-17" target="YVog-vpqwa6BN7kccvuP-106" edge="1">
          <mxGeometry width="50" height="50" relative="1" as="geometry">
            <mxPoint x="190" y="200" as="sourcePoint" />
            <mxPoint x="240" y="150" as="targetPoint" />
          </mxGeometry>
        </mxCell>
        <mxCell id="YVog-vpqwa6BN7kccvuP-114" style="edgeStyle=orthogonalEdgeStyle;rounded=0;orthogonalLoop=1;jettySize=auto;html=1;exitX=1;exitY=0.5;exitDx=0;exitDy=0;entryX=0;entryY=0.5;entryDx=0;entryDy=0;" parent="1" source="YVog-vpqwa6BN7kccvuP-109" target="YVog-vpqwa6BN7kccvuP-60" edge="1">
          <mxGeometry relative="1" as="geometry" />
        </mxCell>
        <mxCell id="YVog-vpqwa6BN7kccvuP-109" value="G" style="ellipse;whiteSpace=wrap;html=1;aspect=fixed;" parent="1" vertex="1">
          <mxGeometry x="720" y="470" width="60" height="60" as="geometry" />
        </mxCell>
        <mxCell id="YVog-vpqwa6BN7kccvuP-111" value="" style="endArrow=classic;html=1;rounded=0;exitX=0;exitY=0;exitDx=0;exitDy=0;entryX=0.994;entryY=0.667;entryDx=0;entryDy=0;entryPerimeter=0;jumpStyle=arc;jumpSize=14;" parent="1" source="SGeFBC_h3Qz1t6XHgx3f-3" target="YVog-vpqwa6BN7kccvuP-106" edge="1">
          <mxGeometry width="50" height="50" relative="1" as="geometry">
            <mxPoint x="390" y="160" as="sourcePoint" />
            <mxPoint x="440" y="110" as="targetPoint" />
          </mxGeometry>
        </mxCell>
        <mxCell id="YVog-vpqwa6BN7kccvuP-113" style="edgeStyle=orthogonalEdgeStyle;rounded=0;orthogonalLoop=1;jettySize=auto;html=1;exitX=1;exitY=0.5;exitDx=0;exitDy=0;entryX=0;entryY=0.5;entryDx=0;entryDy=0;" parent="1" source="YVog-vpqwa6BN7kccvuP-112" target="SGeFBC_h3Qz1t6XHgx3f-5" edge="1">
          <mxGeometry relative="1" as="geometry" />
        </mxCell>
        <mxCell id="YVog-vpqwa6BN7kccvuP-112" value="G" style="ellipse;whiteSpace=wrap;html=1;aspect=fixed;" parent="1" vertex="1">
          <mxGeometry x="69.99999999999994" y="460" width="60" height="60" as="geometry" />
        </mxCell>
        <mxCell id="YVog-vpqwa6BN7kccvuP-161" style="edgeStyle=orthogonalEdgeStyle;rounded=0;orthogonalLoop=1;jettySize=auto;html=1;exitX=1;exitY=0.5;exitDx=0;exitDy=0;entryX=0;entryY=0.5;entryDx=0;entryDy=0;" parent="1" source="YVog-vpqwa6BN7kccvuP-162" target="YVog-vpqwa6BN7kccvuP-193" edge="1">
          <mxGeometry relative="1" as="geometry" />
        </mxCell>
        <mxCell id="YVog-vpqwa6BN7kccvuP-162" value="5" style="ellipse;whiteSpace=wrap;html=1;aspect=fixed;" parent="1" vertex="1">
          <mxGeometry x="1469.99" y="460" width="60" height="60" as="geometry" />
        </mxCell>
        <mxCell id="YVog-vpqwa6BN7kccvuP-163" style="edgeStyle=orthogonalEdgeStyle;rounded=0;orthogonalLoop=1;jettySize=auto;html=1;exitX=0.5;exitY=1;exitDx=0;exitDy=0;entryX=0.5;entryY=0;entryDx=0;entryDy=0;" parent="1" source="YVog-vpqwa6BN7kccvuP-166" target="YVog-vpqwa6BN7kccvuP-168" edge="1">
          <mxGeometry relative="1" as="geometry" />
        </mxCell>
        <mxCell id="YVog-vpqwa6BN7kccvuP-164" style="edgeStyle=orthogonalEdgeStyle;rounded=0;orthogonalLoop=1;jettySize=auto;html=1;exitX=1;exitY=0.5;exitDx=0;exitDy=0;entryX=0.5;entryY=1;entryDx=0;entryDy=0;" parent="1" source="YVog-vpqwa6BN7kccvuP-166" target="YVog-vpqwa6BN7kccvuP-193" edge="1">
          <mxGeometry relative="1" as="geometry" />
        </mxCell>
        <mxCell id="YVog-vpqwa6BN7kccvuP-165" style="edgeStyle=orthogonalEdgeStyle;rounded=0;orthogonalLoop=1;jettySize=auto;html=1;exitX=0;exitY=1;exitDx=0;exitDy=0;entryX=0;entryY=0.5;entryDx=0;entryDy=0;" parent="1" source="YVog-vpqwa6BN7kccvuP-166" target="YVog-vpqwa6BN7kccvuP-171" edge="1">
          <mxGeometry relative="1" as="geometry">
            <Array as="points">
              <mxPoint x="1359.99" y="601" />
              <mxPoint x="1359.99" y="830" />
            </Array>
          </mxGeometry>
        </mxCell>
        <mxCell id="LdQGlsfs232LINJjI0_c-8" style="rounded=0;orthogonalLoop=1;jettySize=auto;html=1;exitX=1;exitY=1;exitDx=0;exitDy=0;entryX=0;entryY=0;entryDx=0;entryDy=0;" parent="1" source="YVog-vpqwa6BN7kccvuP-166" target="YVog-vpqwa6BN7kccvuP-172" edge="1">
          <mxGeometry relative="1" as="geometry" />
        </mxCell>
        <mxCell id="YVog-vpqwa6BN7kccvuP-166" value="6" style="ellipse;whiteSpace=wrap;html=1;aspect=fixed;" parent="1" vertex="1">
          <mxGeometry x="1469.99" y="550" width="60" height="60" as="geometry" />
        </mxCell>
        <mxCell id="YVog-vpqwa6BN7kccvuP-167" style="edgeStyle=orthogonalEdgeStyle;rounded=0;orthogonalLoop=1;jettySize=auto;html=1;exitX=1;exitY=0.5;exitDx=0;exitDy=0;entryX=0;entryY=0.5;entryDx=0;entryDy=0;" parent="1" source="YVog-vpqwa6BN7kccvuP-168" target="YVog-vpqwa6BN7kccvuP-181" edge="1">
          <mxGeometry relative="1" as="geometry" />
        </mxCell>
        <mxCell id="YVog-vpqwa6BN7kccvuP-168" value="7" style="ellipse;whiteSpace=wrap;html=1;aspect=fixed;" parent="1" vertex="1">
          <mxGeometry x="1469.99" y="710" width="60" height="60" as="geometry" />
        </mxCell>
        <mxCell id="YVog-vpqwa6BN7kccvuP-169" style="edgeStyle=orthogonalEdgeStyle;rounded=0;orthogonalLoop=1;jettySize=auto;html=1;exitX=1;exitY=0.5;exitDx=0;exitDy=0;entryX=0;entryY=0.5;entryDx=0;entryDy=0;" parent="1" source="YVog-vpqwa6BN7kccvuP-171" target="YVog-vpqwa6BN7kccvuP-184" edge="1">
          <mxGeometry relative="1" as="geometry" />
        </mxCell>
        <mxCell id="YVog-vpqwa6BN7kccvuP-170" style="rounded=0;orthogonalLoop=1;jettySize=auto;html=1;exitX=1;exitY=0;exitDx=0;exitDy=0;entryX=0;entryY=1;entryDx=0;entryDy=0;" parent="1" source="YVog-vpqwa6BN7kccvuP-171" target="YVog-vpqwa6BN7kccvuP-181" edge="1">
          <mxGeometry relative="1" as="geometry" />
        </mxCell>
        <mxCell id="YVog-vpqwa6BN7kccvuP-171" value="8" style="ellipse;whiteSpace=wrap;html=1;aspect=fixed;" parent="1" vertex="1">
          <mxGeometry x="1469.99" y="800" width="60" height="60" as="geometry" />
        </mxCell>
        <mxCell id="YVog-vpqwa6BN7kccvuP-172" value="9" style="ellipse;whiteSpace=wrap;html=1;aspect=fixed;" parent="1" vertex="1">
          <mxGeometry x="1829.9999999999998" y="710" width="60" height="60" as="geometry" />
        </mxCell>
        <mxCell id="YVog-vpqwa6BN7kccvuP-173" value="10" style="ellipse;whiteSpace=wrap;html=1;aspect=fixed;" parent="1" vertex="1">
          <mxGeometry x="1759.9899999999998" y="808.75" width="60" height="60" as="geometry" />
        </mxCell>
        <mxCell id="YVog-vpqwa6BN7kccvuP-174" value="11" style="ellipse;whiteSpace=wrap;html=1;aspect=fixed;" parent="1" vertex="1">
          <mxGeometry x="1759.9899999999998" y="903.75" width="60" height="60" as="geometry" />
        </mxCell>
        <mxCell id="YVog-vpqwa6BN7kccvuP-175" value="12" style="ellipse;whiteSpace=wrap;html=1;aspect=fixed;" parent="1" vertex="1">
          <mxGeometry x="1759.9899999999998" y="1027.5" width="60" height="60" as="geometry" />
        </mxCell>
        <mxCell id="YVog-vpqwa6BN7kccvuP-176" value="13" style="ellipse;whiteSpace=wrap;html=1;aspect=fixed;" parent="1" vertex="1">
          <mxGeometry x="1759.9899999999998" y="1100" width="60" height="60" as="geometry" />
        </mxCell>
        <mxCell id="YVog-vpqwa6BN7kccvuP-177" style="edgeStyle=orthogonalEdgeStyle;rounded=0;orthogonalLoop=1;jettySize=auto;html=1;exitX=0.5;exitY=1;exitDx=0;exitDy=0;entryX=0.5;entryY=0;entryDx=0;entryDy=0;" parent="1" source="YVog-vpqwa6BN7kccvuP-178" target="YVog-vpqwa6BN7kccvuP-179" edge="1">
          <mxGeometry relative="1" as="geometry" />
        </mxCell>
        <mxCell id="YVog-vpqwa6BN7kccvuP-178" value="14" style="ellipse;whiteSpace=wrap;html=1;aspect=fixed;" parent="1" vertex="1">
          <mxGeometry x="1759.9899999999998" y="1190" width="60" height="60" as="geometry" />
        </mxCell>
        <mxCell id="YVog-vpqwa6BN7kccvuP-179" value="15" style="ellipse;whiteSpace=wrap;html=1;aspect=fixed;" parent="1" vertex="1">
          <mxGeometry x="1759.9899999999998" y="1280" width="60" height="60" as="geometry" />
        </mxCell>
        <mxCell id="YVog-vpqwa6BN7kccvuP-180" style="edgeStyle=orthogonalEdgeStyle;rounded=0;orthogonalLoop=1;jettySize=auto;html=1;exitX=1;exitY=0.5;exitDx=0;exitDy=0;entryX=0;entryY=0.5;entryDx=0;entryDy=0;" parent="1" source="YVog-vpqwa6BN7kccvuP-181" target="YVog-vpqwa6BN7kccvuP-185" edge="1">
          <mxGeometry relative="1" as="geometry" />
        </mxCell>
        <mxCell id="YVog-vpqwa6BN7kccvuP-181" value="7" style="ellipse;whiteSpace=wrap;html=1;aspect=fixed;" parent="1" vertex="1">
          <mxGeometry x="1559.99" y="710" width="60" height="60" as="geometry" />
        </mxCell>
        <mxCell id="YVog-vpqwa6BN7kccvuP-182" style="edgeStyle=orthogonalEdgeStyle;rounded=0;orthogonalLoop=1;jettySize=auto;html=1;exitX=1;exitY=0.5;exitDx=0;exitDy=0;entryX=0;entryY=0.5;entryDx=0;entryDy=0;" parent="1" source="YVog-vpqwa6BN7kccvuP-184" target="YVog-vpqwa6BN7kccvuP-190" edge="1">
          <mxGeometry relative="1" as="geometry" />
        </mxCell>
        <mxCell id="YVog-vpqwa6BN7kccvuP-183" style="rounded=0;orthogonalLoop=1;jettySize=auto;html=1;exitX=1;exitY=0;exitDx=0;exitDy=0;entryX=0;entryY=1;entryDx=0;entryDy=0;" parent="1" source="YVog-vpqwa6BN7kccvuP-184" target="YVog-vpqwa6BN7kccvuP-185" edge="1">
          <mxGeometry relative="1" as="geometry" />
        </mxCell>
        <mxCell id="YVog-vpqwa6BN7kccvuP-184" value="8" style="ellipse;whiteSpace=wrap;html=1;aspect=fixed;" parent="1" vertex="1">
          <mxGeometry x="1559.99" y="800" width="60" height="60" as="geometry" />
        </mxCell>
        <mxCell id="9o-YKEWLazrQR5-02yx1-9" style="edgeStyle=orthogonalEdgeStyle;rounded=0;orthogonalLoop=1;jettySize=auto;html=1;exitX=1;exitY=0.5;exitDx=0;exitDy=0;entryX=0;entryY=0.5;entryDx=0;entryDy=0;" edge="1" parent="1" source="YVog-vpqwa6BN7kccvuP-185" target="9o-YKEWLazrQR5-02yx1-7">
          <mxGeometry relative="1" as="geometry" />
        </mxCell>
        <mxCell id="YVog-vpqwa6BN7kccvuP-185" value="7" style="ellipse;whiteSpace=wrap;html=1;aspect=fixed;" parent="1" vertex="1">
          <mxGeometry x="1649.99" y="710" width="60" height="60" as="geometry" />
        </mxCell>
        <mxCell id="YVog-vpqwa6BN7kccvuP-186" style="rounded=0;orthogonalLoop=1;jettySize=auto;html=1;entryX=0;entryY=1;entryDx=0;entryDy=0;" parent="1" target="YVog-vpqwa6BN7kccvuP-172" edge="1">
          <mxGeometry relative="1" as="geometry">
            <mxPoint x="1710" y="820" as="sourcePoint" />
          </mxGeometry>
        </mxCell>
        <mxCell id="YVog-vpqwa6BN7kccvuP-187" style="edgeStyle=orthogonalEdgeStyle;rounded=0;orthogonalLoop=1;jettySize=auto;html=1;exitX=1;exitY=0.5;exitDx=0;exitDy=0;entryX=0;entryY=0.5;entryDx=0;entryDy=0;" parent="1" source="YVog-vpqwa6BN7kccvuP-190" target="YVog-vpqwa6BN7kccvuP-175" edge="1">
          <mxGeometry relative="1" as="geometry">
            <Array as="points">
              <mxPoint x="1730" y="830" />
              <mxPoint x="1730" y="1058" />
            </Array>
          </mxGeometry>
        </mxCell>
        <mxCell id="YVog-vpqwa6BN7kccvuP-188" style="edgeStyle=orthogonalEdgeStyle;rounded=0;orthogonalLoop=1;jettySize=auto;html=1;exitX=1;exitY=0.5;exitDx=0;exitDy=0;entryX=0;entryY=0.5;entryDx=0;entryDy=0;" parent="1" source="YVog-vpqwa6BN7kccvuP-190" target="YVog-vpqwa6BN7kccvuP-176" edge="1">
          <mxGeometry relative="1" as="geometry">
            <Array as="points">
              <mxPoint x="1729.9899999999998" y="830" />
              <mxPoint x="1729.9899999999998" y="1130" />
            </Array>
          </mxGeometry>
        </mxCell>
        <mxCell id="YVog-vpqwa6BN7kccvuP-189" style="edgeStyle=orthogonalEdgeStyle;rounded=0;orthogonalLoop=1;jettySize=auto;html=1;exitX=1;exitY=0.5;exitDx=0;exitDy=0;entryX=0;entryY=0.5;entryDx=0;entryDy=0;" parent="1" source="YVog-vpqwa6BN7kccvuP-190" target="YVog-vpqwa6BN7kccvuP-178" edge="1">
          <mxGeometry relative="1" as="geometry">
            <Array as="points">
              <mxPoint x="1729.9899999999998" y="830" />
              <mxPoint x="1729.9899999999998" y="1220" />
            </Array>
          </mxGeometry>
        </mxCell>
        <mxCell id="9o-YKEWLazrQR5-02yx1-8" style="rounded=0;orthogonalLoop=1;jettySize=auto;html=1;exitX=1;exitY=0;exitDx=0;exitDy=0;entryX=0;entryY=1;entryDx=0;entryDy=0;" edge="1" parent="1" source="YVog-vpqwa6BN7kccvuP-190" target="9o-YKEWLazrQR5-02yx1-7">
          <mxGeometry relative="1" as="geometry" />
        </mxCell>
        <mxCell id="YVog-vpqwa6BN7kccvuP-190" value="8" style="ellipse;whiteSpace=wrap;html=1;aspect=fixed;" parent="1" vertex="1">
          <mxGeometry x="1649.99" y="800" width="60" height="60" as="geometry" />
        </mxCell>
        <mxCell id="YVog-vpqwa6BN7kccvuP-191" value="" style="shape=curlyBracket;whiteSpace=wrap;html=1;rounded=1;labelPosition=left;verticalLabelPosition=middle;align=right;verticalAlign=middle;rotation=-90;" parent="1" vertex="1">
          <mxGeometry x="1582.49" y="762.5" width="20" height="255" as="geometry" />
        </mxCell>
        <mxCell id="YVog-vpqwa6BN7kccvuP-192" value="while i &amp;lt;= len(text) - len(pattern)" style="text;html=1;strokeColor=none;fillColor=none;align=center;verticalAlign=middle;whiteSpace=wrap;rounded=0;" parent="1" vertex="1">
          <mxGeometry x="1489.99" y="910" width="190" height="30" as="geometry" />
        </mxCell>
        <mxCell id="YVog-vpqwa6BN7kccvuP-193" value="А" style="ellipse;whiteSpace=wrap;html=1;aspect=fixed;" parent="1" vertex="1">
          <mxGeometry x="1629.99" y="460" width="60" height="60" as="geometry" />
        </mxCell>
        <mxCell id="YVog-vpqwa6BN7kccvuP-194" style="edgeStyle=orthogonalEdgeStyle;rounded=0;orthogonalLoop=1;jettySize=auto;html=1;exitX=1;exitY=0.5;exitDx=0;exitDy=0;entryX=0;entryY=0.5;entryDx=0;entryDy=0;" parent="1" source="YVog-vpqwa6BN7kccvuP-195" target="YVog-vpqwa6BN7kccvuP-168" edge="1">
          <mxGeometry relative="1" as="geometry" />
        </mxCell>
        <mxCell id="YVog-vpqwa6BN7kccvuP-195" value="А" style="ellipse;whiteSpace=wrap;html=1;aspect=fixed;" parent="1" vertex="1">
          <mxGeometry x="1369.99" y="710" width="60" height="60" as="geometry" />
        </mxCell>
        <mxCell id="YVog-vpqwa6BN7kccvuP-196" style="edgeStyle=orthogonalEdgeStyle;rounded=0;orthogonalLoop=1;jettySize=auto;html=1;exitX=0;exitY=0.5;exitDx=0;exitDy=0;" parent="1" source="YVog-vpqwa6BN7kccvuP-197" target="YVog-vpqwa6BN7kccvuP-173" edge="1">
          <mxGeometry relative="1" as="geometry" />
        </mxCell>
        <mxCell id="YVog-vpqwa6BN7kccvuP-197" value="B" style="ellipse;whiteSpace=wrap;html=1;aspect=fixed;" parent="1" vertex="1">
          <mxGeometry x="1869.9899999999998" y="808.75" width="60" height="60" as="geometry" />
        </mxCell>
        <mxCell id="YVog-vpqwa6BN7kccvuP-198" style="edgeStyle=orthogonalEdgeStyle;rounded=0;orthogonalLoop=1;jettySize=auto;html=1;exitX=0;exitY=0.5;exitDx=0;exitDy=0;entryX=1;entryY=0.5;entryDx=0;entryDy=0;" parent="1" source="YVog-vpqwa6BN7kccvuP-199" target="YVog-vpqwa6BN7kccvuP-174" edge="1">
          <mxGeometry relative="1" as="geometry" />
        </mxCell>
        <mxCell id="YVog-vpqwa6BN7kccvuP-199" value="C" style="ellipse;whiteSpace=wrap;html=1;aspect=fixed;" parent="1" vertex="1">
          <mxGeometry x="1869.9899999999998" y="903.75" width="60" height="60" as="geometry" />
        </mxCell>
        <mxCell id="YVog-vpqwa6BN7kccvuP-200" style="edgeStyle=orthogonalEdgeStyle;rounded=0;orthogonalLoop=1;jettySize=auto;html=1;exitX=0;exitY=0.5;exitDx=0;exitDy=0;entryX=1;entryY=0.5;entryDx=0;entryDy=0;" parent="1" source="YVog-vpqwa6BN7kccvuP-201" target="YVog-vpqwa6BN7kccvuP-176" edge="1">
          <mxGeometry relative="1" as="geometry" />
        </mxCell>
        <mxCell id="YVog-vpqwa6BN7kccvuP-201" value="D" style="ellipse;whiteSpace=wrap;html=1;aspect=fixed;" parent="1" vertex="1">
          <mxGeometry x="1859.9899999999998" y="1100" width="60" height="60" as="geometry" />
        </mxCell>
        <mxCell id="YVog-vpqwa6BN7kccvuP-202" style="edgeStyle=orthogonalEdgeStyle;rounded=0;orthogonalLoop=1;jettySize=auto;html=1;exitX=0;exitY=0.5;exitDx=0;exitDy=0;entryX=1;entryY=0.5;entryDx=0;entryDy=0;" parent="1" source="YVog-vpqwa6BN7kccvuP-203" target="YVog-vpqwa6BN7kccvuP-178" edge="1">
          <mxGeometry relative="1" as="geometry" />
        </mxCell>
        <mxCell id="YVog-vpqwa6BN7kccvuP-203" value="E" style="ellipse;whiteSpace=wrap;html=1;aspect=fixed;" parent="1" vertex="1">
          <mxGeometry x="1859.9899999999998" y="1190" width="60" height="60" as="geometry" />
        </mxCell>
        <mxCell id="YVog-vpqwa6BN7kccvuP-204" style="edgeStyle=orthogonalEdgeStyle;rounded=0;orthogonalLoop=1;jettySize=auto;html=1;exitX=0;exitY=1;exitDx=0;exitDy=0;entryX=0;entryY=0.5;entryDx=0;entryDy=0;jumpStyle=arc;jumpSize=14;" parent="1" source="YVog-vpqwa6BN7kccvuP-176" target="YVog-vpqwa6BN7kccvuP-179" edge="1">
          <mxGeometry relative="1" as="geometry">
            <Array as="points">
              <mxPoint x="1739.9899999999998" y="1151" />
              <mxPoint x="1739.9899999999998" y="1310" />
            </Array>
          </mxGeometry>
        </mxCell>
        <mxCell id="YVog-vpqwa6BN7kccvuP-205" style="edgeStyle=orthogonalEdgeStyle;rounded=0;orthogonalLoop=1;jettySize=auto;html=1;exitX=0;exitY=0.5;exitDx=0;exitDy=0;entryX=1;entryY=0.5;entryDx=0;entryDy=0;" parent="1" source="YVog-vpqwa6BN7kccvuP-206" target="YVog-vpqwa6BN7kccvuP-179" edge="1">
          <mxGeometry relative="1" as="geometry" />
        </mxCell>
        <mxCell id="YVog-vpqwa6BN7kccvuP-206" value="F" style="ellipse;whiteSpace=wrap;html=1;aspect=fixed;" parent="1" vertex="1">
          <mxGeometry x="1859.9899999999998" y="1280" width="60" height="60" as="geometry" />
        </mxCell>
        <mxCell id="YVog-vpqwa6BN7kccvuP-207" style="edgeStyle=orthogonalEdgeStyle;rounded=0;orthogonalLoop=1;jettySize=auto;html=1;exitX=1;exitY=0.5;exitDx=0;exitDy=0;entryX=0;entryY=0.5;entryDx=0;entryDy=0;" parent="1" source="YVog-vpqwa6BN7kccvuP-208" target="YVog-vpqwa6BN7kccvuP-162" edge="1">
          <mxGeometry relative="1" as="geometry" />
        </mxCell>
        <mxCell id="YVog-vpqwa6BN7kccvuP-208" value="G" style="ellipse;whiteSpace=wrap;html=1;aspect=fixed;" parent="1" vertex="1">
          <mxGeometry x="1375.08" y="460" width="60" height="60" as="geometry" />
        </mxCell>
        <mxCell id="LdQGlsfs232LINJjI0_c-2" style="edgeStyle=orthogonalEdgeStyle;rounded=0;orthogonalLoop=1;jettySize=auto;html=1;exitX=0;exitY=1;exitDx=0;exitDy=0;jumpStyle=arc;jumpSize=14;" parent="1" source="SGeFBC_h3Qz1t6XHgx3f-11" edge="1">
          <mxGeometry relative="1" as="geometry">
            <mxPoint x="1110" y="960" as="targetPoint" />
            <Array as="points">
              <mxPoint x="459" y="1000" />
              <mxPoint x="1110" y="1000" />
              <mxPoint x="1110" y="965" />
              <mxPoint x="1110" y="965" />
            </Array>
          </mxGeometry>
        </mxCell>
        <mxCell id="LdQGlsfs232LINJjI0_c-3" style="edgeStyle=orthogonalEdgeStyle;rounded=0;orthogonalLoop=1;jettySize=auto;html=1;entryX=0.5;entryY=1;entryDx=0;entryDy=0;jumpStyle=arc;jumpSize=14;" parent="1" target="YVog-vpqwa6BN7kccvuP-174" edge="1">
          <mxGeometry relative="1" as="geometry">
            <mxPoint x="1120" y="970" as="sourcePoint" />
            <Array as="points">
              <mxPoint x="1120" y="1010" />
              <mxPoint x="1790" y="1010" />
            </Array>
          </mxGeometry>
        </mxCell>
        <mxCell id="LdQGlsfs232LINJjI0_c-7" style="rounded=0;orthogonalLoop=1;jettySize=auto;html=1;exitX=0.913;exitY=0.792;exitDx=0;exitDy=0;entryX=0;entryY=0;entryDx=0;entryDy=0;exitPerimeter=0;" parent="1" source="YVog-vpqwa6BN7kccvuP-64" target="YVog-vpqwa6BN7kccvuP-70" edge="1">
          <mxGeometry relative="1" as="geometry">
            <mxPoint x="871.91" y="610" as="sourcePoint" />
            <mxPoint x="1099.91" y="728" as="targetPoint" />
          </mxGeometry>
        </mxCell>
        <mxCell id="9o-YKEWLazrQR5-02yx1-1" value="7" style="ellipse;whiteSpace=wrap;html=1;aspect=fixed;" vertex="1" parent="1">
          <mxGeometry x="440" y="710" width="60" height="60" as="geometry" />
        </mxCell>
        <mxCell id="9o-YKEWLazrQR5-02yx1-4" value="7" style="ellipse;whiteSpace=wrap;html=1;aspect=fixed;" vertex="1" parent="1">
          <mxGeometry x="1089.9999999999998" y="720" width="60" height="60" as="geometry" />
        </mxCell>
        <mxCell id="9o-YKEWLazrQR5-02yx1-7" value="7" style="ellipse;whiteSpace=wrap;html=1;aspect=fixed;" vertex="1" parent="1">
          <mxGeometry x="1739.99" y="710" width="60" height="60" as="geometry" />
        </mxCell>
      </root>
    </mxGraphModel>
  </diagram>
  <diagram id="8I7VMzLC8fo8p2Irs8s2" name="Page-4">
    <mxGraphModel dx="1639" dy="901" grid="1" gridSize="10" guides="1" tooltips="1" connect="1" arrows="1" fold="1" page="1" pageScale="1" pageWidth="850" pageHeight="1100" math="0" shadow="0">
      <root>
        <mxCell id="0" />
        <mxCell id="1" parent="0" />
        <mxCell id="oR6L0_8FhDs0BcqJRcFG-1" style="edgeStyle=orthogonalEdgeStyle;rounded=0;orthogonalLoop=1;jettySize=auto;html=1;exitX=1;exitY=0.5;exitDx=0;exitDy=0;" parent="1" source="oR6L0_8FhDs0BcqJRcFG-2" target="oR6L0_8FhDs0BcqJRcFG-4" edge="1">
          <mxGeometry relative="1" as="geometry" />
        </mxCell>
        <mxCell id="oR6L0_8FhDs0BcqJRcFG-2" value="1" style="ellipse;whiteSpace=wrap;html=1;aspect=fixed;" parent="1" vertex="1">
          <mxGeometry x="320" y="340" width="60" height="60" as="geometry" />
        </mxCell>
        <mxCell id="oR6L0_8FhDs0BcqJRcFG-3" style="edgeStyle=orthogonalEdgeStyle;rounded=0;orthogonalLoop=1;jettySize=auto;html=1;exitX=1;exitY=0.5;exitDx=0;exitDy=0;entryX=0;entryY=0.5;entryDx=0;entryDy=0;" parent="1" source="oR6L0_8FhDs0BcqJRcFG-4" target="oR6L0_8FhDs0BcqJRcFG-6" edge="1">
          <mxGeometry relative="1" as="geometry" />
        </mxCell>
        <mxCell id="oR6L0_8FhDs0BcqJRcFG-4" value="2" style="ellipse;whiteSpace=wrap;html=1;aspect=fixed;" parent="1" vertex="1">
          <mxGeometry x="420" y="340" width="60" height="60" as="geometry" />
        </mxCell>
        <mxCell id="oR6L0_8FhDs0BcqJRcFG-5" style="edgeStyle=orthogonalEdgeStyle;rounded=0;orthogonalLoop=1;jettySize=auto;html=1;exitX=1;exitY=0.5;exitDx=0;exitDy=0;entryX=0;entryY=0.5;entryDx=0;entryDy=0;" parent="1" source="oR6L0_8FhDs0BcqJRcFG-6" target="oR6L0_8FhDs0BcqJRcFG-8" edge="1">
          <mxGeometry relative="1" as="geometry" />
        </mxCell>
        <mxCell id="oR6L0_8FhDs0BcqJRcFG-6" value="3" style="ellipse;whiteSpace=wrap;html=1;aspect=fixed;" parent="1" vertex="1">
          <mxGeometry x="520" y="340" width="60" height="60" as="geometry" />
        </mxCell>
        <mxCell id="oR6L0_8FhDs0BcqJRcFG-7" style="edgeStyle=orthogonalEdgeStyle;rounded=0;orthogonalLoop=1;jettySize=auto;html=1;exitX=1;exitY=0.5;exitDx=0;exitDy=0;entryX=0;entryY=0.5;entryDx=0;entryDy=0;" parent="1" source="oR6L0_8FhDs0BcqJRcFG-8" target="oR6L0_8FhDs0BcqJRcFG-33" edge="1">
          <mxGeometry relative="1" as="geometry" />
        </mxCell>
        <mxCell id="oR6L0_8FhDs0BcqJRcFG-8" value="4" style="ellipse;whiteSpace=wrap;html=1;aspect=fixed;" parent="1" vertex="1">
          <mxGeometry x="620" y="340" width="60" height="60" as="geometry" />
        </mxCell>
        <mxCell id="oR6L0_8FhDs0BcqJRcFG-9" style="edgeStyle=orthogonalEdgeStyle;rounded=0;orthogonalLoop=1;jettySize=auto;html=1;exitX=0.5;exitY=1;exitDx=0;exitDy=0;entryX=0.5;entryY=0;entryDx=0;entryDy=0;" parent="1" source="oR6L0_8FhDs0BcqJRcFG-10" target="oR6L0_8FhDs0BcqJRcFG-12" edge="1">
          <mxGeometry relative="1" as="geometry" />
        </mxCell>
        <mxCell id="oR6L0_8FhDs0BcqJRcFG-10" value="5" style="ellipse;whiteSpace=wrap;html=1;aspect=fixed;" parent="1" vertex="1">
          <mxGeometry x="200" y="460" width="60" height="60" as="geometry" />
        </mxCell>
        <mxCell id="oR6L0_8FhDs0BcqJRcFG-11" style="edgeStyle=orthogonalEdgeStyle;rounded=0;orthogonalLoop=1;jettySize=auto;html=1;exitX=0.5;exitY=1;exitDx=0;exitDy=0;entryX=0.5;entryY=0;entryDx=0;entryDy=0;" parent="1" source="oR6L0_8FhDs0BcqJRcFG-12" target="oR6L0_8FhDs0BcqJRcFG-14" edge="1">
          <mxGeometry relative="1" as="geometry" />
        </mxCell>
        <mxCell id="oR6L0_8FhDs0BcqJRcFG-12" value="6" style="ellipse;whiteSpace=wrap;html=1;aspect=fixed;" parent="1" vertex="1">
          <mxGeometry x="200" y="550" width="60" height="60" as="geometry" />
        </mxCell>
        <mxCell id="oR6L0_8FhDs0BcqJRcFG-13" style="edgeStyle=orthogonalEdgeStyle;rounded=0;orthogonalLoop=1;jettySize=auto;html=1;exitX=0.5;exitY=1;exitDx=0;exitDy=0;entryX=0.5;entryY=0;entryDx=0;entryDy=0;" parent="1" source="oR6L0_8FhDs0BcqJRcFG-14" target="oR6L0_8FhDs0BcqJRcFG-15" edge="1">
          <mxGeometry relative="1" as="geometry" />
        </mxCell>
        <mxCell id="oR6L0_8FhDs0BcqJRcFG-14" value="7" style="ellipse;whiteSpace=wrap;html=1;aspect=fixed;" parent="1" vertex="1">
          <mxGeometry x="200" y="640" width="60" height="60" as="geometry" />
        </mxCell>
        <mxCell id="oR6L0_8FhDs0BcqJRcFG-15" value="8" style="ellipse;whiteSpace=wrap;html=1;aspect=fixed;" parent="1" vertex="1">
          <mxGeometry x="200" y="730" width="60" height="60" as="geometry" />
        </mxCell>
        <mxCell id="oR6L0_8FhDs0BcqJRcFG-16" style="edgeStyle=orthogonalEdgeStyle;rounded=0;orthogonalLoop=1;jettySize=auto;html=1;exitX=0.5;exitY=1;exitDx=0;exitDy=0;entryX=0.5;entryY=0;entryDx=0;entryDy=0;" parent="1" source="oR6L0_8FhDs0BcqJRcFG-18" target="oR6L0_8FhDs0BcqJRcFG-20" edge="1">
          <mxGeometry relative="1" as="geometry" />
        </mxCell>
        <mxCell id="oR6L0_8FhDs0BcqJRcFG-18" value="9" style="ellipse;whiteSpace=wrap;html=1;aspect=fixed;" parent="1" vertex="1">
          <mxGeometry x="470" y="641.25" width="60" height="60" as="geometry" />
        </mxCell>
        <mxCell id="oR6L0_8FhDs0BcqJRcFG-19" style="edgeStyle=orthogonalEdgeStyle;rounded=0;orthogonalLoop=1;jettySize=auto;html=1;exitX=0.5;exitY=1;exitDx=0;exitDy=0;entryX=0.5;entryY=0;entryDx=0;entryDy=0;" parent="1" source="oR6L0_8FhDs0BcqJRcFG-20" target="oR6L0_8FhDs0BcqJRcFG-21" edge="1">
          <mxGeometry relative="1" as="geometry" />
        </mxCell>
        <mxCell id="oR6L0_8FhDs0BcqJRcFG-20" value="10" style="ellipse;whiteSpace=wrap;html=1;aspect=fixed;" parent="1" vertex="1">
          <mxGeometry x="470" y="738.75" width="60" height="60" as="geometry" />
        </mxCell>
        <mxCell id="oR6L0_8FhDs0BcqJRcFG-21" value="11" style="ellipse;whiteSpace=wrap;html=1;aspect=fixed;" parent="1" vertex="1">
          <mxGeometry x="470" y="833.75" width="60" height="60" as="geometry" />
        </mxCell>
        <mxCell id="oR6L0_8FhDs0BcqJRcFG-29" style="edgeStyle=orthogonalEdgeStyle;rounded=0;orthogonalLoop=1;jettySize=auto;html=1;exitX=1;exitY=0.5;exitDx=0;exitDy=0;entryX=0;entryY=0.5;entryDx=0;entryDy=0;" parent="1" source="oR6L0_8FhDs0BcqJRcFG-30" target="oR6L0_8FhDs0BcqJRcFG-32" edge="1">
          <mxGeometry relative="1" as="geometry" />
        </mxCell>
        <mxCell id="oR6L0_8FhDs0BcqJRcFG-30" value="text" style="ellipse;whiteSpace=wrap;html=1;aspect=fixed;" parent="1" vertex="1">
          <mxGeometry x="100" y="340" width="60" height="60" as="geometry" />
        </mxCell>
        <mxCell id="oR6L0_8FhDs0BcqJRcFG-31" style="edgeStyle=orthogonalEdgeStyle;rounded=0;orthogonalLoop=1;jettySize=auto;html=1;exitX=1;exitY=0.5;exitDx=0;exitDy=0;entryX=0;entryY=0.5;entryDx=0;entryDy=0;" parent="1" source="oR6L0_8FhDs0BcqJRcFG-32" target="oR6L0_8FhDs0BcqJRcFG-2" edge="1">
          <mxGeometry relative="1" as="geometry" />
        </mxCell>
        <mxCell id="oR6L0_8FhDs0BcqJRcFG-32" value="pattern" style="ellipse;whiteSpace=wrap;html=1;aspect=fixed;" parent="1" vertex="1">
          <mxGeometry x="210" y="340" width="60" height="60" as="geometry" />
        </mxCell>
        <mxCell id="oR6L0_8FhDs0BcqJRcFG-33" value="А" style="ellipse;whiteSpace=wrap;html=1;aspect=fixed;" parent="1" vertex="1">
          <mxGeometry x="720" y="340" width="60" height="60" as="geometry" />
        </mxCell>
        <mxCell id="oR6L0_8FhDs0BcqJRcFG-34" style="edgeStyle=orthogonalEdgeStyle;rounded=0;orthogonalLoop=1;jettySize=auto;html=1;exitX=1;exitY=0.5;exitDx=0;exitDy=0;entryX=0;entryY=0.5;entryDx=0;entryDy=0;" parent="1" source="oR6L0_8FhDs0BcqJRcFG-35" target="oR6L0_8FhDs0BcqJRcFG-10" edge="1">
          <mxGeometry relative="1" as="geometry" />
        </mxCell>
        <mxCell id="oR6L0_8FhDs0BcqJRcFG-35" value="А" style="ellipse;whiteSpace=wrap;html=1;aspect=fixed;" parent="1" vertex="1">
          <mxGeometry x="100" y="460" width="60" height="60" as="geometry" />
        </mxCell>
        <mxCell id="oR6L0_8FhDs0BcqJRcFG-36" style="edgeStyle=orthogonalEdgeStyle;rounded=0;orthogonalLoop=1;jettySize=auto;html=1;exitX=0.5;exitY=1;exitDx=0;exitDy=0;entryX=0.5;entryY=0;entryDx=0;entryDy=0;" parent="1" source="oR6L0_8FhDs0BcqJRcFG-37" target="oR6L0_8FhDs0BcqJRcFG-39" edge="1">
          <mxGeometry relative="1" as="geometry" />
        </mxCell>
        <mxCell id="oR6L0_8FhDs0BcqJRcFG-37" value="7" style="ellipse;whiteSpace=wrap;html=1;aspect=fixed;" parent="1" vertex="1">
          <mxGeometry x="290" y="640" width="60" height="60" as="geometry" />
        </mxCell>
        <mxCell id="oR6L0_8FhDs0BcqJRcFG-38" style="rounded=0;orthogonalLoop=1;jettySize=auto;html=1;exitX=1;exitY=0;exitDx=0;exitDy=0;entryX=0;entryY=1;entryDx=0;entryDy=0;" parent="1" source="oR6L0_8FhDs0BcqJRcFG-39" target="oR6L0_8FhDs0BcqJRcFG-41" edge="1">
          <mxGeometry relative="1" as="geometry" />
        </mxCell>
        <mxCell id="oR6L0_8FhDs0BcqJRcFG-39" value="8" style="ellipse;whiteSpace=wrap;html=1;aspect=fixed;" parent="1" vertex="1">
          <mxGeometry x="290" y="730" width="60" height="60" as="geometry" />
        </mxCell>
        <mxCell id="oR6L0_8FhDs0BcqJRcFG-40" style="edgeStyle=orthogonalEdgeStyle;rounded=0;orthogonalLoop=1;jettySize=auto;html=1;exitX=0.5;exitY=1;exitDx=0;exitDy=0;entryX=0.5;entryY=0;entryDx=0;entryDy=0;" parent="1" source="oR6L0_8FhDs0BcqJRcFG-41" target="oR6L0_8FhDs0BcqJRcFG-43" edge="1">
          <mxGeometry relative="1" as="geometry" />
        </mxCell>
        <mxCell id="oR6L0_8FhDs0BcqJRcFG-41" value="7" style="ellipse;whiteSpace=wrap;html=1;aspect=fixed;" parent="1" vertex="1">
          <mxGeometry x="380" y="640" width="60" height="60" as="geometry" />
        </mxCell>
        <mxCell id="oR6L0_8FhDs0BcqJRcFG-42" style="rounded=0;orthogonalLoop=1;jettySize=auto;html=1;exitX=1;exitY=0;exitDx=0;exitDy=0;entryX=0;entryY=1;entryDx=0;entryDy=0;" parent="1" source="oR6L0_8FhDs0BcqJRcFG-43" target="oR6L0_8FhDs0BcqJRcFG-18" edge="1">
          <mxGeometry relative="1" as="geometry" />
        </mxCell>
        <mxCell id="oR6L0_8FhDs0BcqJRcFG-43" value="8" style="ellipse;whiteSpace=wrap;html=1;aspect=fixed;" parent="1" vertex="1">
          <mxGeometry x="380" y="730" width="60" height="60" as="geometry" />
        </mxCell>
        <mxCell id="oR6L0_8FhDs0BcqJRcFG-44" value="" style="endArrow=classic;html=1;rounded=0;exitX=1;exitY=0;exitDx=0;exitDy=0;entryX=0;entryY=1;entryDx=0;entryDy=0;" parent="1" source="oR6L0_8FhDs0BcqJRcFG-15" target="oR6L0_8FhDs0BcqJRcFG-37" edge="1">
          <mxGeometry width="50" height="50" relative="1" as="geometry">
            <mxPoint x="260" y="720" as="sourcePoint" />
            <mxPoint x="310" y="670" as="targetPoint" />
          </mxGeometry>
        </mxCell>
        <mxCell id="oR6L0_8FhDs0BcqJRcFG-45" value="" style="shape=curlyBracket;whiteSpace=wrap;html=1;rounded=1;labelPosition=left;verticalLabelPosition=middle;align=right;verticalAlign=middle;rotation=-90;" parent="1" vertex="1">
          <mxGeometry x="312.5" y="692.5" width="20" height="255" as="geometry" />
        </mxCell>
        <mxCell id="oR6L0_8FhDs0BcqJRcFG-46" value="while i &amp;lt;= len(text) - len(pattern)" style="text;html=1;strokeColor=none;fillColor=none;align=center;verticalAlign=middle;whiteSpace=wrap;rounded=0;" parent="1" vertex="1">
          <mxGeometry x="235" y="840" width="190" height="30" as="geometry" />
        </mxCell>
        <mxCell id="oR6L0_8FhDs0BcqJRcFG-47" style="edgeStyle=orthogonalEdgeStyle;rounded=0;orthogonalLoop=1;jettySize=auto;html=1;exitX=0.5;exitY=1;exitDx=0;exitDy=0;entryX=0.5;entryY=0;entryDx=0;entryDy=0;" parent="1" source="oR6L0_8FhDs0BcqJRcFG-48" target="oR6L0_8FhDs0BcqJRcFG-50" edge="1">
          <mxGeometry relative="1" as="geometry" />
        </mxCell>
        <mxCell id="oR6L0_8FhDs0BcqJRcFG-48" value="5" style="ellipse;whiteSpace=wrap;html=1;aspect=fixed;" parent="1" vertex="1">
          <mxGeometry x="640" y="458.75" width="60" height="60" as="geometry" />
        </mxCell>
        <mxCell id="oR6L0_8FhDs0BcqJRcFG-49" style="edgeStyle=orthogonalEdgeStyle;rounded=0;orthogonalLoop=1;jettySize=auto;html=1;exitX=0.5;exitY=1;exitDx=0;exitDy=0;entryX=0.5;entryY=0;entryDx=0;entryDy=0;" parent="1" source="oR6L0_8FhDs0BcqJRcFG-50" target="oR6L0_8FhDs0BcqJRcFG-52" edge="1">
          <mxGeometry relative="1" as="geometry" />
        </mxCell>
        <mxCell id="oR6L0_8FhDs0BcqJRcFG-50" value="6" style="ellipse;whiteSpace=wrap;html=1;aspect=fixed;" parent="1" vertex="1">
          <mxGeometry x="640" y="548.75" width="60" height="60" as="geometry" />
        </mxCell>
        <mxCell id="oR6L0_8FhDs0BcqJRcFG-51" style="edgeStyle=orthogonalEdgeStyle;rounded=0;orthogonalLoop=1;jettySize=auto;html=1;exitX=0.5;exitY=1;exitDx=0;exitDy=0;entryX=0.5;entryY=0;entryDx=0;entryDy=0;" parent="1" source="oR6L0_8FhDs0BcqJRcFG-52" target="oR6L0_8FhDs0BcqJRcFG-53" edge="1">
          <mxGeometry relative="1" as="geometry" />
        </mxCell>
        <mxCell id="oR6L0_8FhDs0BcqJRcFG-52" value="7" style="ellipse;whiteSpace=wrap;html=1;aspect=fixed;" parent="1" vertex="1">
          <mxGeometry x="640" y="638.75" width="60" height="60" as="geometry" />
        </mxCell>
        <mxCell id="oR6L0_8FhDs0BcqJRcFG-53" value="8" style="ellipse;whiteSpace=wrap;html=1;aspect=fixed;" parent="1" vertex="1">
          <mxGeometry x="640" y="728.75" width="60" height="60" as="geometry" />
        </mxCell>
        <mxCell id="oR6L0_8FhDs0BcqJRcFG-54" style="edgeStyle=orthogonalEdgeStyle;rounded=0;orthogonalLoop=1;jettySize=auto;html=1;exitX=0.5;exitY=1;exitDx=0;exitDy=0;entryX=0.5;entryY=0;entryDx=0;entryDy=0;" parent="1" source="oR6L0_8FhDs0BcqJRcFG-56" target="oR6L0_8FhDs0BcqJRcFG-58" edge="1">
          <mxGeometry relative="1" as="geometry" />
        </mxCell>
        <mxCell id="oR6L0_8FhDs0BcqJRcFG-56" value="9" style="ellipse;whiteSpace=wrap;html=1;aspect=fixed;" parent="1" vertex="1">
          <mxGeometry x="910" y="640" width="60" height="60" as="geometry" />
        </mxCell>
        <mxCell id="oR6L0_8FhDs0BcqJRcFG-57" style="edgeStyle=orthogonalEdgeStyle;rounded=0;orthogonalLoop=1;jettySize=auto;html=1;exitX=0.5;exitY=1;exitDx=0;exitDy=0;entryX=0.5;entryY=0;entryDx=0;entryDy=0;" parent="1" source="oR6L0_8FhDs0BcqJRcFG-58" target="oR6L0_8FhDs0BcqJRcFG-60" edge="1">
          <mxGeometry relative="1" as="geometry" />
        </mxCell>
        <mxCell id="oR6L0_8FhDs0BcqJRcFG-58" value="10" style="ellipse;whiteSpace=wrap;html=1;aspect=fixed;" parent="1" vertex="1">
          <mxGeometry x="910" y="737.5" width="60" height="60" as="geometry" />
        </mxCell>
        <mxCell id="oR6L0_8FhDs0BcqJRcFG-59" style="rounded=0;orthogonalLoop=1;jettySize=auto;html=1;exitX=1;exitY=0.5;exitDx=0;exitDy=0;entryX=0;entryY=0.5;entryDx=0;entryDy=0;jumpStyle=arc;jumpSize=18;" parent="1" source="oR6L0_8FhDs0BcqJRcFG-60" target="oR6L0_8FhDs0BcqJRcFG-82" edge="1">
          <mxGeometry relative="1" as="geometry" />
        </mxCell>
        <mxCell id="oR6L0_8FhDs0BcqJRcFG-60" value="11" style="ellipse;whiteSpace=wrap;html=1;aspect=fixed;" parent="1" vertex="1">
          <mxGeometry x="910" y="832.5" width="60" height="60" as="geometry" />
        </mxCell>
        <mxCell id="oR6L0_8FhDs0BcqJRcFG-68" style="edgeStyle=orthogonalEdgeStyle;rounded=0;orthogonalLoop=1;jettySize=auto;html=1;exitX=0.5;exitY=1;exitDx=0;exitDy=0;entryX=0.5;entryY=0;entryDx=0;entryDy=0;" parent="1" source="oR6L0_8FhDs0BcqJRcFG-69" target="oR6L0_8FhDs0BcqJRcFG-71" edge="1">
          <mxGeometry relative="1" as="geometry" />
        </mxCell>
        <mxCell id="oR6L0_8FhDs0BcqJRcFG-69" value="7" style="ellipse;whiteSpace=wrap;html=1;aspect=fixed;" parent="1" vertex="1">
          <mxGeometry x="730" y="638.75" width="60" height="60" as="geometry" />
        </mxCell>
        <mxCell id="oR6L0_8FhDs0BcqJRcFG-70" style="rounded=0;orthogonalLoop=1;jettySize=auto;html=1;exitX=1;exitY=0;exitDx=0;exitDy=0;entryX=0;entryY=1;entryDx=0;entryDy=0;" parent="1" source="oR6L0_8FhDs0BcqJRcFG-71" target="oR6L0_8FhDs0BcqJRcFG-73" edge="1">
          <mxGeometry relative="1" as="geometry" />
        </mxCell>
        <mxCell id="oR6L0_8FhDs0BcqJRcFG-71" value="8" style="ellipse;whiteSpace=wrap;html=1;aspect=fixed;" parent="1" vertex="1">
          <mxGeometry x="730" y="728.75" width="60" height="60" as="geometry" />
        </mxCell>
        <mxCell id="oR6L0_8FhDs0BcqJRcFG-72" style="edgeStyle=orthogonalEdgeStyle;rounded=0;orthogonalLoop=1;jettySize=auto;html=1;exitX=0.5;exitY=1;exitDx=0;exitDy=0;entryX=0.5;entryY=0;entryDx=0;entryDy=0;" parent="1" source="oR6L0_8FhDs0BcqJRcFG-73" target="oR6L0_8FhDs0BcqJRcFG-75" edge="1">
          <mxGeometry relative="1" as="geometry" />
        </mxCell>
        <mxCell id="oR6L0_8FhDs0BcqJRcFG-73" value="7" style="ellipse;whiteSpace=wrap;html=1;aspect=fixed;" parent="1" vertex="1">
          <mxGeometry x="820" y="638.75" width="60" height="60" as="geometry" />
        </mxCell>
        <mxCell id="oR6L0_8FhDs0BcqJRcFG-74" style="rounded=0;orthogonalLoop=1;jettySize=auto;html=1;exitX=1;exitY=0;exitDx=0;exitDy=0;entryX=0;entryY=1;entryDx=0;entryDy=0;" parent="1" source="oR6L0_8FhDs0BcqJRcFG-75" target="oR6L0_8FhDs0BcqJRcFG-56" edge="1">
          <mxGeometry relative="1" as="geometry" />
        </mxCell>
        <mxCell id="oR6L0_8FhDs0BcqJRcFG-75" value="8" style="ellipse;whiteSpace=wrap;html=1;aspect=fixed;" parent="1" vertex="1">
          <mxGeometry x="820" y="728.75" width="60" height="60" as="geometry" />
        </mxCell>
        <mxCell id="oR6L0_8FhDs0BcqJRcFG-76" value="" style="endArrow=classic;html=1;rounded=0;exitX=1;exitY=0;exitDx=0;exitDy=0;entryX=0;entryY=1;entryDx=0;entryDy=0;" parent="1" source="oR6L0_8FhDs0BcqJRcFG-53" target="oR6L0_8FhDs0BcqJRcFG-69" edge="1">
          <mxGeometry width="50" height="50" relative="1" as="geometry">
            <mxPoint x="700" y="718.75" as="sourcePoint" />
            <mxPoint x="750" y="668.75" as="targetPoint" />
          </mxGeometry>
        </mxCell>
        <mxCell id="oR6L0_8FhDs0BcqJRcFG-77" value="" style="shape=curlyBracket;whiteSpace=wrap;html=1;rounded=1;labelPosition=left;verticalLabelPosition=middle;align=right;verticalAlign=middle;rotation=-90;" parent="1" vertex="1">
          <mxGeometry x="752.5" y="691.25" width="20" height="255" as="geometry" />
        </mxCell>
        <mxCell id="oR6L0_8FhDs0BcqJRcFG-78" value="while i &amp;lt;= len(text) - len(pattern)" style="text;html=1;strokeColor=none;fillColor=none;align=center;verticalAlign=middle;whiteSpace=wrap;rounded=0;" parent="1" vertex="1">
          <mxGeometry x="752.5" y="932.5" width="190" height="30" as="geometry" />
        </mxCell>
        <mxCell id="oR6L0_8FhDs0BcqJRcFG-79" value="" style="endArrow=classic;html=1;rounded=0;exitX=1;exitY=0;exitDx=0;exitDy=0;entryX=0;entryY=0.5;entryDx=0;entryDy=0;jumpStyle=arc;jumpSize=18;" parent="1" source="oR6L0_8FhDs0BcqJRcFG-21" target="oR6L0_8FhDs0BcqJRcFG-48" edge="1">
          <mxGeometry width="50" height="50" relative="1" as="geometry">
            <mxPoint x="550" y="640" as="sourcePoint" />
            <mxPoint x="600" y="590" as="targetPoint" />
          </mxGeometry>
        </mxCell>
        <mxCell id="oR6L0_8FhDs0BcqJRcFG-81" style="edgeStyle=orthogonalEdgeStyle;rounded=0;orthogonalLoop=1;jettySize=auto;html=1;exitX=0.5;exitY=1;exitDx=0;exitDy=0;entryX=0.5;entryY=0;entryDx=0;entryDy=0;" parent="1" source="oR6L0_8FhDs0BcqJRcFG-82" target="oR6L0_8FhDs0BcqJRcFG-84" edge="1">
          <mxGeometry relative="1" as="geometry" />
        </mxCell>
        <mxCell id="oR6L0_8FhDs0BcqJRcFG-82" value="5" style="ellipse;whiteSpace=wrap;html=1;aspect=fixed;" parent="1" vertex="1">
          <mxGeometry x="1090" y="450" width="60" height="60" as="geometry" />
        </mxCell>
        <mxCell id="oR6L0_8FhDs0BcqJRcFG-83" style="edgeStyle=orthogonalEdgeStyle;rounded=0;orthogonalLoop=1;jettySize=auto;html=1;exitX=0.5;exitY=1;exitDx=0;exitDy=0;entryX=0.5;entryY=0;entryDx=0;entryDy=0;" parent="1" source="oR6L0_8FhDs0BcqJRcFG-84" target="oR6L0_8FhDs0BcqJRcFG-86" edge="1">
          <mxGeometry relative="1" as="geometry" />
        </mxCell>
        <mxCell id="oR6L0_8FhDs0BcqJRcFG-84" value="6" style="ellipse;whiteSpace=wrap;html=1;aspect=fixed;" parent="1" vertex="1">
          <mxGeometry x="1090" y="540" width="60" height="60" as="geometry" />
        </mxCell>
        <mxCell id="oR6L0_8FhDs0BcqJRcFG-85" style="edgeStyle=orthogonalEdgeStyle;rounded=0;orthogonalLoop=1;jettySize=auto;html=1;exitX=0.5;exitY=1;exitDx=0;exitDy=0;entryX=0.5;entryY=0;entryDx=0;entryDy=0;" parent="1" source="oR6L0_8FhDs0BcqJRcFG-86" target="oR6L0_8FhDs0BcqJRcFG-87" edge="1">
          <mxGeometry relative="1" as="geometry" />
        </mxCell>
        <mxCell id="oR6L0_8FhDs0BcqJRcFG-86" value="7" style="ellipse;whiteSpace=wrap;html=1;aspect=fixed;" parent="1" vertex="1">
          <mxGeometry x="1090" y="630" width="60" height="60" as="geometry" />
        </mxCell>
        <mxCell id="oR6L0_8FhDs0BcqJRcFG-87" value="8" style="ellipse;whiteSpace=wrap;html=1;aspect=fixed;" parent="1" vertex="1">
          <mxGeometry x="1090" y="720" width="60" height="60" as="geometry" />
        </mxCell>
        <mxCell id="oR6L0_8FhDs0BcqJRcFG-88" style="edgeStyle=orthogonalEdgeStyle;rounded=0;orthogonalLoop=1;jettySize=auto;html=1;exitX=0.5;exitY=1;exitDx=0;exitDy=0;entryX=0.5;entryY=0;entryDx=0;entryDy=0;" parent="1" source="oR6L0_8FhDs0BcqJRcFG-90" target="oR6L0_8FhDs0BcqJRcFG-92" edge="1">
          <mxGeometry relative="1" as="geometry" />
        </mxCell>
        <mxCell id="oR6L0_8FhDs0BcqJRcFG-90" value="9" style="ellipse;whiteSpace=wrap;html=1;aspect=fixed;" parent="1" vertex="1">
          <mxGeometry x="1360" y="631.25" width="60" height="60" as="geometry" />
        </mxCell>
        <mxCell id="oR6L0_8FhDs0BcqJRcFG-91" style="edgeStyle=orthogonalEdgeStyle;rounded=0;orthogonalLoop=1;jettySize=auto;html=1;exitX=0.5;exitY=1;exitDx=0;exitDy=0;entryX=0.5;entryY=0;entryDx=0;entryDy=0;" parent="1" source="oR6L0_8FhDs0BcqJRcFG-92" target="oR6L0_8FhDs0BcqJRcFG-93" edge="1">
          <mxGeometry relative="1" as="geometry" />
        </mxCell>
        <mxCell id="oR6L0_8FhDs0BcqJRcFG-92" value="10" style="ellipse;whiteSpace=wrap;html=1;aspect=fixed;" parent="1" vertex="1">
          <mxGeometry x="1360" y="728.75" width="60" height="60" as="geometry" />
        </mxCell>
        <mxCell id="oR6L0_8FhDs0BcqJRcFG-93" value="11" style="ellipse;whiteSpace=wrap;html=1;aspect=fixed;" parent="1" vertex="1">
          <mxGeometry x="1360" y="823.75" width="60" height="60" as="geometry" />
        </mxCell>
        <mxCell id="oR6L0_8FhDs0BcqJRcFG-101" style="edgeStyle=orthogonalEdgeStyle;rounded=0;orthogonalLoop=1;jettySize=auto;html=1;exitX=0.5;exitY=1;exitDx=0;exitDy=0;entryX=0.5;entryY=0;entryDx=0;entryDy=0;" parent="1" source="oR6L0_8FhDs0BcqJRcFG-102" target="oR6L0_8FhDs0BcqJRcFG-104" edge="1">
          <mxGeometry relative="1" as="geometry" />
        </mxCell>
        <mxCell id="oR6L0_8FhDs0BcqJRcFG-102" value="7" style="ellipse;whiteSpace=wrap;html=1;aspect=fixed;" parent="1" vertex="1">
          <mxGeometry x="1180" y="630" width="60" height="60" as="geometry" />
        </mxCell>
        <mxCell id="oR6L0_8FhDs0BcqJRcFG-103" style="rounded=0;orthogonalLoop=1;jettySize=auto;html=1;exitX=1;exitY=0;exitDx=0;exitDy=0;entryX=0;entryY=1;entryDx=0;entryDy=0;" parent="1" source="oR6L0_8FhDs0BcqJRcFG-104" target="oR6L0_8FhDs0BcqJRcFG-106" edge="1">
          <mxGeometry relative="1" as="geometry" />
        </mxCell>
        <mxCell id="oR6L0_8FhDs0BcqJRcFG-104" value="8" style="ellipse;whiteSpace=wrap;html=1;aspect=fixed;" parent="1" vertex="1">
          <mxGeometry x="1180" y="720" width="60" height="60" as="geometry" />
        </mxCell>
        <mxCell id="oR6L0_8FhDs0BcqJRcFG-105" style="edgeStyle=orthogonalEdgeStyle;rounded=0;orthogonalLoop=1;jettySize=auto;html=1;exitX=0.5;exitY=1;exitDx=0;exitDy=0;entryX=0.5;entryY=0;entryDx=0;entryDy=0;" parent="1" source="oR6L0_8FhDs0BcqJRcFG-106" target="oR6L0_8FhDs0BcqJRcFG-108" edge="1">
          <mxGeometry relative="1" as="geometry" />
        </mxCell>
        <mxCell id="oR6L0_8FhDs0BcqJRcFG-106" value="7" style="ellipse;whiteSpace=wrap;html=1;aspect=fixed;" parent="1" vertex="1">
          <mxGeometry x="1270" y="630" width="60" height="60" as="geometry" />
        </mxCell>
        <mxCell id="oR6L0_8FhDs0BcqJRcFG-107" style="rounded=0;orthogonalLoop=1;jettySize=auto;html=1;exitX=1;exitY=0;exitDx=0;exitDy=0;entryX=0;entryY=1;entryDx=0;entryDy=0;" parent="1" source="oR6L0_8FhDs0BcqJRcFG-108" target="oR6L0_8FhDs0BcqJRcFG-90" edge="1">
          <mxGeometry relative="1" as="geometry" />
        </mxCell>
        <mxCell id="oR6L0_8FhDs0BcqJRcFG-108" value="8" style="ellipse;whiteSpace=wrap;html=1;aspect=fixed;" parent="1" vertex="1">
          <mxGeometry x="1270" y="720" width="60" height="60" as="geometry" />
        </mxCell>
        <mxCell id="oR6L0_8FhDs0BcqJRcFG-109" value="" style="endArrow=classic;html=1;rounded=0;exitX=1;exitY=0;exitDx=0;exitDy=0;entryX=0;entryY=1;entryDx=0;entryDy=0;" parent="1" source="oR6L0_8FhDs0BcqJRcFG-87" target="oR6L0_8FhDs0BcqJRcFG-102" edge="1">
          <mxGeometry width="50" height="50" relative="1" as="geometry">
            <mxPoint x="1150" y="710" as="sourcePoint" />
            <mxPoint x="1200" y="660" as="targetPoint" />
          </mxGeometry>
        </mxCell>
        <mxCell id="oR6L0_8FhDs0BcqJRcFG-110" value="" style="shape=curlyBracket;whiteSpace=wrap;html=1;rounded=1;labelPosition=left;verticalLabelPosition=middle;align=right;verticalAlign=middle;rotation=-90;" parent="1" vertex="1">
          <mxGeometry x="1202.5" y="682.5" width="20" height="255" as="geometry" />
        </mxCell>
        <mxCell id="oR6L0_8FhDs0BcqJRcFG-111" value="while i &amp;lt;= len(text) - len(pattern)" style="text;html=1;strokeColor=none;fillColor=none;align=center;verticalAlign=middle;whiteSpace=wrap;rounded=0;" parent="1" vertex="1">
          <mxGeometry x="1125" y="830" width="190" height="30" as="geometry" />
        </mxCell>
        <mxCell id="oR6L0_8FhDs0BcqJRcFG-113" value="" style="shape=curlyBracket;whiteSpace=wrap;html=1;rounded=1;labelPosition=left;verticalLabelPosition=middle;align=right;verticalAlign=middle;rotation=-90;" parent="1" vertex="1">
          <mxGeometry x="805" y="260" width="20" height="1325" as="geometry" />
        </mxCell>
        <mxCell id="oR6L0_8FhDs0BcqJRcFG-114" value="while i &amp;lt;= len(text) - len(pattern)" style="text;html=1;strokeColor=none;fillColor=none;align=center;verticalAlign=middle;whiteSpace=wrap;rounded=0;" parent="1" vertex="1">
          <mxGeometry x="680" y="832.5" width="190" height="30" as="geometry" />
        </mxCell>
      </root>
    </mxGraphModel>
  </diagram>
</mxfile>
